<mxfile host="app.diagrams.net" modified="2023-09-30T07:11:40.083Z" agent="Mozilla/5.0 (Windows NT 10.0; Win64; x64) AppleWebKit/537.36 (KHTML, like Gecko) Chrome/117.0.0.0 Safari/537.36 Edg/117.0.2045.43" etag="j1mhMB15uwHVqNhkQzIZ" version="21.7.5" type="device" pages="5">
  <diagram name="Capstone 1A" id="qOzjEp93J_bGPFGn9KAs">
    <mxGraphModel dx="1042" dy="569" grid="0" gridSize="10" guides="0" tooltips="1" connect="1" arrows="1" fold="1" page="0" pageScale="1" pageWidth="850" pageHeight="1100" math="0" shadow="0">
      <root>
        <mxCell id="0" />
        <mxCell id="1" parent="0" />
        <mxCell id="wexxQA6s2vpV9IgpnQYT-13" value="" style="outlineConnect=0;dashed=0;verticalLabelPosition=bottom;verticalAlign=top;align=center;html=1;shape=mxgraph.aws3.iam;fillColor=#759C3E;gradientColor=none;" parent="1" vertex="1">
          <mxGeometry x="478" y="39" width="42" height="81" as="geometry" />
        </mxCell>
        <mxCell id="wexxQA6s2vpV9IgpnQYT-18" value="" style="outlineConnect=0;dashed=0;verticalLabelPosition=bottom;verticalAlign=top;align=center;html=1;shape=mxgraph.aws3.run_command;fillColor=#759C3E;gradientColor=none;" parent="1" vertex="1">
          <mxGeometry x="530" y="162.5" width="50" height="37.5" as="geometry" />
        </mxCell>
        <mxCell id="wexxQA6s2vpV9IgpnQYT-19" value="" style="sketch=0;outlineConnect=0;fontColor=#232F3E;gradientColor=none;fillColor=#232F3D;strokeColor=none;dashed=0;verticalLabelPosition=bottom;verticalAlign=top;align=center;html=1;fontSize=12;fontStyle=0;aspect=fixed;pointerEvents=1;shape=mxgraph.aws4.documents2;" parent="1" vertex="1">
          <mxGeometry x="537.82" y="270" width="34.36" height="40" as="geometry" />
        </mxCell>
        <mxCell id="wexxQA6s2vpV9IgpnQYT-27" value="&lt;b&gt;Run Command&lt;/b&gt;" style="text;html=1;align=center;verticalAlign=middle;resizable=0;points=[];autosize=1;strokeColor=none;fillColor=none;" parent="1" vertex="1">
          <mxGeometry x="500" y="200" width="110" height="30" as="geometry" />
        </mxCell>
        <mxCell id="wexxQA6s2vpV9IgpnQYT-28" value="&lt;b&gt;SSM Docs&lt;/b&gt;" style="text;html=1;align=center;verticalAlign=middle;resizable=0;points=[];autosize=1;strokeColor=none;fillColor=none;" parent="1" vertex="1">
          <mxGeometry x="515" y="310" width="80" height="30" as="geometry" />
        </mxCell>
        <mxCell id="wexxQA6s2vpV9IgpnQYT-30" value="&lt;b&gt;Mumbai Region&lt;/b&gt;" style="points=[[0,0],[0.25,0],[0.5,0],[0.75,0],[1,0],[1,0.25],[1,0.5],[1,0.75],[1,1],[0.75,1],[0.5,1],[0.25,1],[0,1],[0,0.75],[0,0.5],[0,0.25]];outlineConnect=0;gradientColor=none;html=1;whiteSpace=wrap;fontSize=12;fontStyle=0;container=1;pointerEvents=0;collapsible=0;recursiveResize=0;shape=mxgraph.aws4.group;grIcon=mxgraph.aws4.group_region;strokeColor=#147EBA;fillColor=none;verticalAlign=top;align=left;spacingLeft=30;fontColor=#147EBA;dashed=1;" parent="1" vertex="1">
          <mxGeometry x="350" y="150" width="490" height="250" as="geometry" />
        </mxCell>
        <mxCell id="wexxQA6s2vpV9IgpnQYT-11" value="AWS Systems Manager" style="sketch=0;outlineConnect=0;fontColor=#232F3E;gradientColor=none;strokeColor=#ffffff;fillColor=#232F3E;dashed=0;verticalLabelPosition=middle;verticalAlign=bottom;align=center;html=1;whiteSpace=wrap;fontSize=10;fontStyle=1;spacing=3;shape=mxgraph.aws4.productIcon;prIcon=mxgraph.aws4.systems_manager;" parent="wexxQA6s2vpV9IgpnQYT-30" vertex="1">
          <mxGeometry x="20" y="60" width="80" height="110" as="geometry" />
        </mxCell>
        <mxCell id="wexxQA6s2vpV9IgpnQYT-21" value="VPC" style="points=[[0,0],[0.25,0],[0.5,0],[0.75,0],[1,0],[1,0.25],[1,0.5],[1,0.75],[1,1],[0.75,1],[0.5,1],[0.25,1],[0,1],[0,0.75],[0,0.5],[0,0.25]];outlineConnect=0;gradientColor=none;html=1;whiteSpace=wrap;fontSize=12;fontStyle=0;container=1;pointerEvents=0;collapsible=0;recursiveResize=0;shape=mxgraph.aws4.group;grIcon=mxgraph.aws4.group_vpc;strokeColor=#248814;fillColor=none;verticalAlign=top;align=left;spacingLeft=30;fontColor=#AAB7B8;dashed=0;" parent="wexxQA6s2vpV9IgpnQYT-30" vertex="1">
          <mxGeometry x="300" y="20" width="160" height="170" as="geometry" />
        </mxCell>
        <mxCell id="wexxQA6s2vpV9IgpnQYT-23" value="Amazon EC2" style="sketch=0;outlineConnect=0;fontColor=#232F3E;gradientColor=none;strokeColor=#ffffff;fillColor=#232F3E;dashed=0;verticalLabelPosition=middle;verticalAlign=bottom;align=center;html=1;whiteSpace=wrap;fontSize=10;fontStyle=1;spacing=3;shape=mxgraph.aws4.productIcon;prIcon=mxgraph.aws4.ec2;" parent="wexxQA6s2vpV9IgpnQYT-21" vertex="1">
          <mxGeometry x="10" y="40" width="60" height="100" as="geometry" />
        </mxCell>
        <mxCell id="wexxQA6s2vpV9IgpnQYT-25" value="Amazon EC2" style="sketch=0;outlineConnect=0;fontColor=#232F3E;gradientColor=none;strokeColor=#ffffff;fillColor=#232F3E;dashed=0;verticalLabelPosition=middle;verticalAlign=bottom;align=center;html=1;whiteSpace=wrap;fontSize=10;fontStyle=1;spacing=3;shape=mxgraph.aws4.productIcon;prIcon=mxgraph.aws4.ec2;" parent="wexxQA6s2vpV9IgpnQYT-21" vertex="1">
          <mxGeometry x="80" y="40" width="60" height="100" as="geometry" />
        </mxCell>
        <mxCell id="wexxQA6s2vpV9IgpnQYT-26" value="Linux" style="text;html=1;align=center;verticalAlign=middle;resizable=0;points=[];autosize=1;strokeColor=none;fillColor=none;" parent="wexxQA6s2vpV9IgpnQYT-21" vertex="1">
          <mxGeometry x="50" y="138" width="50" height="30" as="geometry" />
        </mxCell>
        <mxCell id="wexxQA6s2vpV9IgpnQYT-50" value="" style="endArrow=classic;startArrow=classic;html=1;rounded=0;" parent="wexxQA6s2vpV9IgpnQYT-30" edge="1">
          <mxGeometry width="50" height="50" relative="1" as="geometry">
            <mxPoint x="200.00230769230762" y="50" as="sourcePoint" />
            <mxPoint x="200" y="120" as="targetPoint" />
          </mxGeometry>
        </mxCell>
        <mxCell id="wexxQA6s2vpV9IgpnQYT-51" value="" style="endArrow=classic;startArrow=classic;html=1;rounded=0;entryX=1;entryY=0.273;entryDx=0;entryDy=0;entryPerimeter=0;" parent="wexxQA6s2vpV9IgpnQYT-30" edge="1">
          <mxGeometry width="50" height="50" relative="1" as="geometry">
            <mxPoint x="308" y="100" as="sourcePoint" />
            <mxPoint x="98" y="100" as="targetPoint" />
          </mxGeometry>
        </mxCell>
        <mxCell id="wexxQA6s2vpV9IgpnQYT-29" value="&lt;b&gt;IAM&lt;/b&gt;" style="text;html=1;align=center;verticalAlign=middle;resizable=0;points=[];autosize=1;strokeColor=none;fillColor=none;" parent="1" vertex="1">
          <mxGeometry x="474" y="120" width="50" height="30" as="geometry" />
        </mxCell>
        <mxCell id="wexxQA6s2vpV9IgpnQYT-31" value="" style="group" parent="1" vertex="1" connectable="0">
          <mxGeometry x="60" y="140" width="130" height="282" as="geometry" />
        </mxCell>
        <mxCell id="wexxQA6s2vpV9IgpnQYT-3" value="AWS Management Console" style="sketch=0;outlineConnect=0;fontColor=#232F3E;gradientColor=none;strokeColor=#ffffff;fillColor=#232F3E;verticalLabelPosition=middle;verticalAlign=bottom;align=center;html=1;whiteSpace=wrap;fontSize=10;fontStyle=1;spacing=3;shape=mxgraph.aws4.productIcon;prIcon=mxgraph.aws4.management_console;" parent="wexxQA6s2vpV9IgpnQYT-31" vertex="1">
          <mxGeometry width="79.38931297709924" height="122" as="geometry" />
        </mxCell>
        <mxCell id="wexxQA6s2vpV9IgpnQYT-7" style="edgeStyle=orthogonalEdgeStyle;rounded=0;orthogonalLoop=1;jettySize=auto;html=1;" parent="wexxQA6s2vpV9IgpnQYT-31" edge="1">
          <mxGeometry relative="1" as="geometry">
            <mxPoint x="79.38931297709924" y="30" as="targetPoint" />
            <mxPoint x="69.46564885496183" y="200" as="sourcePoint" />
            <Array as="points">
              <mxPoint x="130" y="200" />
              <mxPoint x="130" y="32" />
              <mxPoint x="69.46564885496183" y="32" />
              <mxPoint x="69.46564885496183" y="30" />
            </Array>
          </mxGeometry>
        </mxCell>
        <mxCell id="wexxQA6s2vpV9IgpnQYT-4" value="AWS&#xa;Command Line Interface" style="sketch=0;outlineConnect=0;fontColor=#232F3E;gradientColor=none;strokeColor=#ffffff;fillColor=#232F3E;dashed=0;verticalLabelPosition=middle;verticalAlign=bottom;align=center;html=1;whiteSpace=wrap;fontSize=10;fontStyle=1;spacing=3;shape=mxgraph.aws4.productIcon;prIcon=mxgraph.aws4.command_line_interface;" parent="wexxQA6s2vpV9IgpnQYT-31" vertex="1">
          <mxGeometry y="150" width="69.46564885496183" height="122" as="geometry" />
        </mxCell>
        <mxCell id="wexxQA6s2vpV9IgpnQYT-38" value="" style="endArrow=classic;startArrow=classic;html=1;rounded=0;entryX=0;entryY=0.361;entryDx=0;entryDy=0;entryPerimeter=0;" parent="1" target="wexxQA6s2vpV9IgpnQYT-11" edge="1">
          <mxGeometry width="50" height="50" relative="1" as="geometry">
            <mxPoint x="190" y="250" as="sourcePoint" />
            <mxPoint x="290" y="250" as="targetPoint" />
          </mxGeometry>
        </mxCell>
        <mxCell id="wexxQA6s2vpV9IgpnQYT-43" value="" style="endArrow=classic;startArrow=classic;html=1;rounded=0;" parent="1" edge="1">
          <mxGeometry width="50" height="50" relative="1" as="geometry">
            <mxPoint x="406" y="210" as="sourcePoint" />
            <mxPoint x="474" y="81.97752808988764" as="targetPoint" />
            <Array as="points">
              <mxPoint x="406" y="90" />
            </Array>
          </mxGeometry>
        </mxCell>
        <mxCell id="wexxQA6s2vpV9IgpnQYT-58" value="AWS Cloud" style="sketch=0;outlineConnect=0;gradientColor=none;html=1;whiteSpace=wrap;fontSize=12;fontStyle=0;shape=mxgraph.aws4.group;grIcon=mxgraph.aws4.group_aws_cloud;strokeColor=#AAB7B8;fillColor=none;verticalAlign=top;align=left;spacingLeft=30;fontColor=#AAB7B8;dashed=0;" parent="1" vertex="1">
          <mxGeometry x="280" y="20" width="590" height="410" as="geometry" />
        </mxCell>
      </root>
    </mxGraphModel>
  </diagram>
  <diagram id="b7bRmjm-TK-ZIk1x2KHW" name="Capstone 1B">
    <mxGraphModel dx="1450" dy="973" grid="0" gridSize="10" guides="1" tooltips="1" connect="1" arrows="1" fold="1" page="0" pageScale="1" pageWidth="850" pageHeight="1100" math="0" shadow="0">
      <root>
        <mxCell id="0" />
        <mxCell id="1" parent="0" />
        <mxCell id="IKz7TJG8OtB4aFxvGQZs-4" value="VPC" style="sketch=0;outlineConnect=0;gradientColor=none;html=1;whiteSpace=wrap;fontSize=12;fontStyle=0;shape=mxgraph.aws4.group;grIcon=mxgraph.aws4.group_vpc;strokeColor=#b7d1f0;fillColor=none;verticalAlign=top;align=left;spacingLeft=30;fontColor=#B6BABF;dashed=0;" vertex="1" parent="1">
          <mxGeometry x="127" y="89" width="492" height="255" as="geometry" />
        </mxCell>
        <mxCell id="IKz7TJG8OtB4aFxvGQZs-5" value="Security Group" style="fontStyle=0;verticalAlign=top;align=center;spacingTop=-2;fillColor=none;rounded=0;whiteSpace=wrap;html=1;strokeColor=#c800ff;strokeWidth=2;dashed=1;container=1;collapsible=0;expand=0;recursiveResize=0;" vertex="1" parent="1">
          <mxGeometry x="164" y="111.5" width="436" height="216.5" as="geometry" />
        </mxCell>
        <mxCell id="IKz7TJG8OtB4aFxvGQZs-13" style="edgeStyle=orthogonalEdgeStyle;rounded=0;orthogonalLoop=1;jettySize=auto;html=1;" edge="1" parent="IKz7TJG8OtB4aFxvGQZs-5" source="IKz7TJG8OtB4aFxvGQZs-6" target="IKz7TJG8OtB4aFxvGQZs-10">
          <mxGeometry relative="1" as="geometry" />
        </mxCell>
        <mxCell id="IKz7TJG8OtB4aFxvGQZs-15" style="edgeStyle=orthogonalEdgeStyle;rounded=0;orthogonalLoop=1;jettySize=auto;html=1;" edge="1" parent="IKz7TJG8OtB4aFxvGQZs-5" source="IKz7TJG8OtB4aFxvGQZs-6" target="IKz7TJG8OtB4aFxvGQZs-8">
          <mxGeometry relative="1" as="geometry" />
        </mxCell>
        <mxCell id="IKz7TJG8OtB4aFxvGQZs-25" style="edgeStyle=orthogonalEdgeStyle;rounded=0;orthogonalLoop=1;jettySize=auto;html=1;" edge="1" parent="IKz7TJG8OtB4aFxvGQZs-5">
          <mxGeometry relative="1" as="geometry">
            <mxPoint x="-82" y="-72.5" as="targetPoint" />
            <mxPoint x="55" y="90.5" as="sourcePoint" />
          </mxGeometry>
        </mxCell>
        <mxCell id="yClpK7kc0swXINk5XOjI-3" style="edgeStyle=orthogonalEdgeStyle;rounded=0;orthogonalLoop=1;jettySize=auto;html=1;entryX=0.011;entryY=0.543;entryDx=0;entryDy=0;entryPerimeter=0;" edge="1" parent="IKz7TJG8OtB4aFxvGQZs-5" source="IKz7TJG8OtB4aFxvGQZs-6" target="yClpK7kc0swXINk5XOjI-2">
          <mxGeometry relative="1" as="geometry" />
        </mxCell>
        <mxCell id="IKz7TJG8OtB4aFxvGQZs-6" value="" style="shape=image;verticalLabelPosition=bottom;labelBackgroundColor=default;verticalAlign=top;aspect=fixed;imageAspect=0;image=data:image/png,iVBORw0KGgoAAAANSUhEUgAAANkAAACqCAYAAAAgCOoZAAAAAXNSR0IArs4c6QAAAARnQU1BAACxjwv8YQUAAAAJcEhZcwAAEnQAABJ0Ad5mH3gAAGbySURBVHhe7V0HgB1V1f5eL9t7301vJBBKgNB7kd7lRxBRQRBBiqKAILZYARFBRUAQBJQmEEKHhBYglRTSs733fft6+c935s3mpZFEEyTL+5LZmTdz586dmfPdU24ZS0KAND5XMF+JxWLRba4RT2D//fZDe2ubHpMd+tdMQ3R1dSESDuOnP70J5517FqpLcxD29+uxhKS3GacgYYnreXGLFQ67E5acQtlrwb+feg6/+NWdWLRoGVxOF/Lz8zWdRa4dlyJ87ZuX4tbbfmxkksZ2I02yzzHiQg0RcXlJwMznnsMVV1yhhLJarWhra0FFWSWi0egQEUPhfnznyktx449+CIQDiPV2wip5GHkB1oQQkrkmiWkSNG6169pVVI5Afz8+mLcYl3z9cgRDgNftQSwW0+Nc3v/oQ5RXVgydn8a2kSbZ5xR8LXXra3HXXXfhqX/9S383tzRj/2n748hjjsTVV1+NERVVyMrJRW9PlxwnrxoR6umEUEbJZUnEEZP9JCVBsiYSMViSv5V/otUg+ySVrOUsHhLSWbJyMOe9Rbj3z3/Bk0/OQnFhMVx2h2q03//hLpx25plUfmlsB9Ik+7xC3kp1RYVqC5vNho6ODpx66qm44447UFhSCKvsy8vKVjNyRE0ZfvbTW3Ds9MlwSHqSyQC1VpJgJEQ8qtuJuBArFkUkEjE0krLNgMVq03Vc1q6qUbLDgQvOuRhPPfMiysorNb0oRNx000249IrLNW0an440yf7HUCHfxOz64P25OPfss+H3+9HT24PrvncdLrroIpQUFsEuPtSHH36Ik046CQceMBV/uPM3mDplNAKSzmMTP0sIxPwsZJoQKRoKi7kXQTwWhjUuWix5re0x9Vi2qOQTd2Uis6IGLtcIVNVUCzmp+YC6hoYkewXbzu4LizTJ/tcQTUTNQGHlKhQIYtyYUWritbS04aqrrsKvb/+NmIQ96Gxrxy9/+Wv8/e9/11NDgWY6Woi0NcFuFYKJbWizU3NJnkKsiK9XlBeJZfhxOwKKhU3OicuaxI1I+V5bsAbnXngVyspEw4op+vVvfgM/+vFPeDWDtKYkpQm3EdIk+xyhpqJS13wlkXgE9eKTNTc3q/Z646238Lvf/Ab19bUYGPChp3MNXME+iPIa0kqWaBiRkB8xWbhvU2KZr9oqx3bspYuvJueG7EB3wI7xex2DypoRiIZDuPqaa3HN9denifUp2LHqLY2dDhV8+d/X06u/nU6nBjjeeecd9Ij2KigoUD9s1qyXsX79eviEYFd9+2vIzPFAZD7F/wKCA31CsCDswjybvFlGJ7eE7SHYBnOSBKP5aYFDylozugKFeW7U19Vq2e+88048/OCDQwROY3OkSfYZY1NRpJG4bvVqTJ08RbRWE/r6ehBNxGAXGZ8xYwYuueQbyMrKgtftFB9tEOFoN379kxsQb29VwdclIb6Xv19MxqiSK0H6WWzycpMazlyS6c1gyKeBpDGIEyfNdJ89ZkW4cR0aW5bhleceEk1pV7Pxlptvworln2iaNDZHmmSfMSjsFFmTbO1tbRrEoEBX1lThrbfnYPWqVSgsLBZN1ofyymqEIjEsWLAATz/xN8S62hELBMTkkzyS7PGTmGIiMnAvLJKdDMszami0PqdejyAxtg2hqOaVvA7BRuy4Bf7GWhxx7MFimg7SJVScd845xkYamyHtk/0PwEeuAixPvqayUk2+xpYmBAN+rF27FsXFxfjGNy5VgmVmevHg/fehq6sbgfblsIaDMBVRTLRXNOiHTcxDw6QzXqVFtJiphYaupe1hO1inbnYOt+OIJ2zwx6I457IfobahM9lYHUOt+I8Er2zyMo20JvufwNQQhx50kAYn2js7MPfDuWhua0V5VSW+ednlqKyuRklJiZBuPcaOqkAk2A5bJCQnG2achQSIBuV8k7TGfiUXG5yFDLokr7XDBCM2OcdqMwjmyi1AbnEpXps9E40Ndejt7dbjB+43TTjI6xtkT8NAmmT/Q9TX12uDcDgSxn7TpqG6pgYffPCBkGoscsQPW75kKZ7/91N44L575U3FVIBJGvpaEV9/SpuYQSRzOy5aLRpLgFTbmYhFE3BlZiIq14iw64eYrbff/gsM+v16vKWlRbTu/UPlScNA2lz8H8DQPBaMKK+E0+3C/PnzsfDjhTjphBOVdG6nRzVcMOTDhHEjseDDNxDp7dK2MMpvPDiIWNCXzM2AajHakXYHXBm5ooRssHi9iIgPF/b74LCJx5Z809v1wrdgXiZsLiAjB86cEjzx5DO4/Td3Yeo+e6OopBQPPfgP2JwO9d/qmgyzMQ0DaZJ9xuDD1npeNkZUlKuQHn300bjttp8KEezweDyIiL/j6x/AgJDjNzNuxWUXnQa3nKAaIhZGaKBHtJnx2lK1htWbBZvLi6jNCXtOHvqaO5BTki+JohhctxROi5BEsT2BDwPMXQMqND09mbCXjcIRh5+Id+Z+DLfDgZBUCjRZK0vKDaJLRbCuvgEWhjn13OT9foGRJtlnCPNR333n73H7b38n5l6Ujo7ui2pv+himidl4yimn6LLn5CliovnR2bEGcfF7rHI80NOmGm0jSL4x4Y2rehwsGfk45/Tz8MKLr0rWDoTDERXyllXvIDs2aJicYnoaxNkGNtVmOYW49dcP4JEnnkFHR5sIj1X8xjI5YNV7MQk/Za898fyLL6bZlUSaZJ8l5ElHpeYfXTNCBVKjgUKygPg23d3dePfdtzF+/HhkZ2cDNhuKcgsw0N+LYLQNkfYmWCNBxP19ycwMMLgRi1tFg3lgr5qE2348Az+dcQeKCgtgcxhmJ+Jh7D95BB676zZNTzKzHW2b2IRkjuIK7H3QqVi3rhZ7T50Mp2jeOXMXaXNCaXmV+ogETcb35s5FRZXRg+WLjjTJPkNcesnX8cpLLw/5RgPiV40dOxa33HILjj32WAwODqKtrQ3vvPMePl66FH+7/2+yrw/hwSaICkOwtR528a1StRAF25FdgKjVgayKfVEufh61Sqf4YiU5Xm3IHhgMYFDI2rDoZSWY2Ui9o3B4svDqu/Nw7ElHqWYlrKVVCPf7Mf2wk9AzIBo1JgSWGxw7YTxee/1NTfNFR5pknxH4mEdUVskD39B21dTSgr6+XngzMkRj9ePhR/6h7WRNTS3IycnBY489hkjAh4HO1XAgiHBbveZlmGUkWlwIJUovvwR20Xpjxh0ix2xoqK/FXnuOxIN//C1yMrwY8PlR31CLI/aeqOea1/808OimgsHe997SUgx2tIv/aGjCcDwm5POKrZqNyglHIDs3D7FImPoS9c0tmuaLjhSDO41dBRVqkVi1DsX8cjrdaG3vQES0SlRI9/GSZfjmZd/GqlVrxDeLi59TBLfbDZuIOsngYC9gtpEJ2LlXCcBzRcDjTifshZV44IEn0NDQgMpiJ4LBtXj/pX9gdEkGCjKAESVeHLrfpCFibYtghEGwjcXD4bAh0tUBF6OcUm4uLsnLGgwg2tOKb11yJhrr66RsbGYwG8TTSGuyzwocXCmajKZiqwiq3W7H0k+WYumS5Xjqqafg8WTo4EzjddC3seLhB/+GYGAAwb51Yp41IzbYP2ToMVWMgu7JhN9WgMl7T8e+4ic988Rf4e+sh02Osf+jpk1qLgYqzO3tg6EtNwXP5vVTRYd+mKt8FI4/+VysqetDNBxBXYuYuTy2Q9ccfkhrss8It916q64tdhu+/vWvoV8I8+6cd/Hccy8gMztHAxSmMKomYMBCEKMg2+MI+gf1uAq2kIXpYpLO7s7AGWdfiK5uH5576i/wt9XCLUkc2kdf8ogb5KIGZSDDYjqE2wEGSTaD5GHmoMRNLvTz/O31ePmFx1Ev2sxKhicTGve0/dcdbkiT7DMCh65QK/h8Plx48Vfh9/vw9NNPw+Vy6cDKVI1h9kEk1PNJGOF9U8CpNRjwYOOzTfy55ctWIsubAV9bE5xD4X2acxuIoDmSaFy287VzVqvNoOcb4JVYIShIoqiYtNa4EFyuHovobmrbtCZLY9fB5IqsV61apcLW1duN/fffH4O+ECqrR+g+1VrJ9jJDIG06rsyCKIoLvMBAn5DHJv6YPanhhEAcysJNEeKBQb9oOh9cYpLaUoaxMC8SUVIn95jYAnm2hBRCmUjNiaOmh/pMym+7XCvY3opzzzoWbS3tkiAuZd7Qm/+Lis2fYho7D6ZsURhFYNs6OnH4IYdgoHdA+/gNtSvJcfpsqXA67don8Pjjj0Gwv1fSbJiWja+Nws1ZqQLNDVj89pOYN/tfxonJ4+ZASwYn2DuE56keFE1ntTv0two/TUimM84WJEWC+STTsBektplxtyza8VjWGoSx2eELhjTCyGsmRCt/6fijdMT2O2+/vREpTTCPLxLSJNvJMEiwCSjMArYhlZWVYc2aNUOabUswCcCXM2nCOPltEMwEt7nQD7LIety4ERg/tmaIMIS5Tj2PUc22jh7YnB7EqOGSJFfTU7c2QM+XRdNsQaMRzNvuzURtYzPiNpeeQxO1qrJUzGCbTp1gIrUcWyLecEaaZDsZKpz0nxRxQ3sISBR2ZpowaSJeee01BMPhISKkwnRxIqEQRlbk49QTRCuoNjIOGH9NctBnSyDc1a4diBNxIYUIs6FpmMY6FPLn/IsWbzYKqsbixl/cDU/NaM2DBGI5zOuaecckc0dBEcLsbS+wGN6hbPCOjJ6TvBbnaJw87RCccsEVGoihQE0YUYOxY0Zg4cKFegqx0b3yZOOxfCGQJtkugAqhCCDXSg7ZNqOFmZnZ6OrqgdtN82pzSTNjHoFQBKNHVaOirGiohwjFlJuqMbiDBzYhqnHdZLoUwtgcLsDlhkeI85cHH4O/o0tnozIDF7yuBjqSZqFD0r7/4cfITE7VHWdPDiJVq9mZpxfO7AK89fZCuZqYpHK+y+VAVlamarIt3aMWfuNiD2ukSbYLoCTgItorMOhHdSUnBY1p43J+bg662jvgFSHeqHZPAbnT19eHI486DO6czCEto+RJCi3/khgqr8l8VIOZeVLjyMIxZTZ3JpxZ+YgKcSEEGAwD51/8LclDqgDNyCCWnpkkkdXtxjEnX4LFK9aqaSkZ6/5UuCRPzo4Fp6H/MgoKZR3THiwVpWVYu379UHmMUn8xkSbZLoBJhLbmFpxw3HGGNksiGo2qn0Ph22ItL+BwEXYaHllTJT9oZG6AqRG3hFSCDUHMObvbgyhtSy6DPiF9Ll55c5GG1xkIGUKKlkpEIkqcxctXQ7dS0wkYtUzEhaa8ZsCP0SNLgaw82S9mpcMuGjsTgwMDW73HLxLSJNslEMET2TrggANQt36d7tHIm/zrG+gXWaZZpbsVJuGGan3ZjkRCGFNdCQQDom1ShH8ToaU22oDkNv0s6k1Jarc75AJ2OSImo+wIDw5gzpuvIifbhYjNhqhFzMBUEzCJoGgokuyyK29F1ogRCMVF/SXJyzJoQESIZ5N/Md8g/njXb3DT929DRvV4xvJRUFyA7s4u9MqSPMlYJ/FFIl+aZLsA5MrKFStgiRlfXAnJQgVET6q/v1+1Ef0XtnUZk94YgQealKlzdeTlZovqCw+Zi1uGIfjEkNgKGeLagC2kCofkgGwL0XgdtqOVjKjB5d/8OjJrRiC+iYYaMh3lJhxyiJ5Y3BeBN1u0lORHaDBFNi2i4xAVMob6ceB+U/Cn+/6OlUtWSYIE3B6n3suJJx6v5w1pWQGzSf093JEm2U4GBaqzsxMnHnUUonY3ow74/ogqWDs7eBTr167D+LFjEfQNYP4H72HBh+9j+VIx3UJBJQEVBAWQGkLJtSkJNsPmr1C7Ucn5HDNmF5oE+zoQ98v1I4NCiAEM1i/FrT+7WvzCsVjeMICwkHsIci6vy2+ZXX/VV6mTMWL8NLQPsGGZXbWEVzEhjcMp59kwIBzu7Avj3fcXw5lZhL2mnQC4C6SCKFJt1yom87FHyrMIGz1ADMLp5hcGaZLtZAT9AZxx2um6bRO/ytvRjpMrK+FlbwybFcFgELNnz8bMmTOxfPlSLF26FPM+/Eh/F+bla+97CiLX3b39kgk7Ke0gSJTkq43Kdd2Z2bCIbzYo5QmI/xQLhRHt60ZMhP1r3/gOPFnZKdrSOI9lOO20E+CU/W1dIdx0ywz14VgBuDxuhIRol1x+Lc7+v2/gzPMuwSlnflWH5yR1nY5jMzX2mlWrcdZZZ+mRL5IGM5Em2c6ESNiEcePQIH5YXPyd/8vPxqunfgmlItCcv4Mfanhz9hys+GSV9ll0OBxqRmZkeORFJPCbX/8SLz73b+RkZqGotAQvv/E2hAGiTZImYWpAg9Dfm+wTMMKn++W4p6AUl1z1Q5x0wXV49rV3sWBlLdY0deGV1xegsqIaa9e3wZpfZEQQBfoVzqQ5t/fUPfDGK//QqcIff/o1uEoqlTT0KT1SxvcX1WFFYz+aRcsVl5XBaw9h4XvPA4NdxhQHQlRqROa1ZN4CfT4meOyLgjTJ/guwJ1Rqb6hf/3qGCCiFXh5rPIav7bEHivp9GHB70CtmY0J8NLfbqcLPEL1dRDYn242e3k50dnehqKhAPygRiYZ0UtMlS5aKmRc0MhfQDDTbtRRbCFgQFGouLNonK9fhuZnvYPaHS/CN7/wEp5z7LZx09jdx1gXf1kinIkpTziArCWZsxOHvbMe0g/fXz+RWV1eLVnVqr5VgKAS7lI+97Xu6OtHR1orWlha889rTmLTHSCmXMc14llQs6OtFVI3OOB5+6CFdGybjF0ejpUn2X4ByMiQrIpx/vOuP8kRtiDjsOESEa1RHq9TkUdz0wXxYSkuNbk0trbjgy6dh2eK30dS+HOtWz4Pf34L6NYvVZCsqKsFf//Jn7SD87PNz8OY7HyKa1DJEag/9rYH5aDOBbE/cYwzuuuPHQo4oSsrKkVdYDmdGnmieKows86Jx1Rz4GutgG8rWuBYJbZNzButW4947b0Xd+vVw50yAZ/Q4zTfY0ohI58dYM/cZdK+aLT7mJ7AOdiPUXC8ni1smmtrW0YF/nnA00NuFqDyT2374Q516/ItEMCJNsv8Q7G4rVbKxCC677BuqBaL9vaiRGv4Phx+GsNWB9qwczO7u0fkUW9sasHTR+7jpukuR75WTLKLVhHhxXy9cVs7D0YVO0R4ul0fI2IKw5Pe3R58Uk5I6T65IDaBX+3SQIIxaUtMF25tw5nEHIdK7DD++4eu47srzcc23zsYt11+It55/GK5In1ybH45InixX4jU4QSpNWCkhLrnwNKz/5A3UjBqNKZMOgaewRLRTDJGOJuS4rbBGBhFtbIBFtLVJIK4ynS6M6OvB7yZPRGZjo/qAUyfvgVtvuVnTfFGQJtl/CQrVY4/+Ay/NfFF+xZE14MMVBxwAt28ACbsD3aLZoqKVHFYLnnv2nxizx3gNo3uKynDl5d/FU489jVjCof7ZD75/HQJiinGboX4acJ8k/Tde59MaolOhPpUsZsjeRhNPyHbJJV/G1Vd/E9+99jJ8/dKvIDQg5E7OjzgEMRPJN16P2pCmnU/MwdKaCnR1dGLVunapGDLgzs7VY0aIRUxTIdhQ+eRcfkONP91ikk7Py8G5kyao30cf7W/3P2Ck+4IgTbL/EKzntdYWifzh974vwiOPsrsb/zzzDJzrcYq/JSlEmSwbGIAtKxPdYj4ecfj+8LfW4e0PP4bLUYpXXn0X19zwE2QUjMHtd/8V193wHVx6yXk6W9tHH32AyrIKrFhZqz0pdMBKUmtuC9oHkX2zuLCcotHsQrSwmHLhxvUINaxDuKlOx3/pyGmlcxLq53FhyN7w7TiPh792HY4/cm9Uj6gRgk3A/U/MlBQ8V07R+SN5rWQ+cgOdXT3IF180Iyx+Z08Pri3IQ7S3Ry7HaybwtQu/YqTdvlvarcGnmcZ/gbt+/3uRrzgiUm0XhUOoEe1gC0eEdHEEbBa0+HwitxYE/H74+3vgysjEV75yEVux0NvbL0JsQ2VVNW776e+BiA8HTdtLNVBvdx9sdicilFvxZ+hnEVscrbwFaHBBBVi0kamdaEbKwjY0HtNe9EIgM9y/gcQmWeSici4v7RByPHjfXaitrYPL7cbV181AzG7osc3mcJT75fR2bqeYuQkjuGL39aNSnkHYzgZ4C9544w3dz8x53e2tQHZHpEm2A9AZf1Nw6qmn6ydmKTQxux1PnnQCMgcDbEbW4wGpxXsDQREkB8pKcmEX4tmsccx56TH4w7UIDPaJv3MKrrr8fFj5rWebDWeccgxam5vQ1d2JmlInXnrqzwg2N8DKMOYQcf5TkDxbIGmSSGoiypZJaIWQ0rhkHMHuerwmfhxnyaJ/1jwglYc1iqglYpRNk0nqUBgdHV0odLtEy0UkX9knxHvkS8fBISYnr0Oya1qB/pZluCJNsh1Aqk/Emnfx/HlD2zEhRYnU3iosrJVFqLQxVojJ4+UVJSJYMUQGfRhdXQ74enT6t1t/ehO++70rNJzftGYtvFkZuPDc4/CzH30Hrz7/BI486iANsVNODUHcta/M9LG2BLdc//BjD9HeG11dHTjs6JOQXT0KMc7BKMdIGS2jHO/o6ECmy6lWJO8/LrZzQTCAsqAfiUBAiTx37lwj42GONMl2CBselw7/F81kFwGKdPfgPI8LbqnBLVLL0+MfDA6K0MWQ4WB8DvA6XCK6Me0PSLORnXYvOv8EhOpWwL9mKdYunY1Zr4oJJUS8+2fX4jtf+RLiPS2ItDZq8ILXo3nHqN/2YrtTqrYy7o3BDjPgseF8HqOpadcPV4QC63DuGUciI7sKGRkTsXBFi5KGRmlUytnU0olFHy9DRXYudyrBGHyxiX/60InHYi9Jy0qDX+e8789/0SvwesMVaZLtIExhaGluRlTIpFoqHMRF++2r++l/0fxiFySpx5ElJhNr907xsdR3MYVJ0pSXl2rjrkOEsLCqDIGgmJY2uwhkAg6RWjWpBPSpKMDMZ3vayUxsPeUmr13yN6c4sDo9Yt26ZadhJhpEM83MOFxWJ+J9Hbj79l+KvxgR0xH4xYw79LNJqsXkHlvEJOzs6Uee+JL01khAjgCgZi8WTcZIo50dl8VcnPHzn+va0NLDE2mSbQOpgmrU7iIMsnP/aQcibHMg5BvAPaefiomhkOgp+jQJdfrZtuWIhDAqIwOJcABLV9eJsIngxuijSB4UuJJC3aZJObh+DUaK3wa/8d0xXmtDkCM5wvq/QKoCHIomJvPXgIiUg+VzZOXCkZmngzZ5ykb3z1uXP6GeHsT7O9He2qppqqqqEIpJRSA/OPptyYrVaOvzY2ymlyfovTB8T3OZ2uxEuwV5A/3qu3I6vFbJh2kMIg8/pEm2A1BBTIodJ7CxJ6Lw+gOoikSFUAZ5QkI2+mOaJhZFqWiySIAfTTegPTFIMlkb4XImt+h8iScdfRQGOzt132eC5PW5ZpksUmkIV7SMdjFvWWYlu1CHhDQ0qzEujd3GosluWQdP319HG9BUZj5r19eqZGUxmdwqk5OgrCgY33EN+HDMuHGISUVDzJgxQ9fDVRyH513tRBh0SSLJlDNOP10eXAIFjY247dCDUNzVCYeSRgRP9lsZpmYfxmgEZdEwssMRVJWXw1FYpsNE7HIsKLX3wo8+1PwM0onHFhjUad42RaqFuFF5toUhTbhxHpteYcgcdWdpWaxCqmB/vxJMyUedI+UztKvwiZ9pqhgp5m45LjzveHz1wrONctus8Hq9ePH51+D1ZCBfNDmJpF22SFAyWOCS53RleYlqN+b37NNP48orvq3HhiPSJNtBLF26HPPmGVHFAwvysG9ONlmiAhiOGDU5Yx9CMyFOAq5QEPlCOm2ZFkGzuj0qsFZJdMi0vbTRmt9iNtw1w2/5NGxKkE+Fqam2AQo6G7ufmvk6YpEAQn29asqZM13pwm0po0XMSE9+Od565R0t66QJYwGPMRxHierNwPrGZnjcGXCLJjfMRDmYJCwRFlM6xz+AeE+vGohsU5z17LM7eHO7D9Ik2wF0tLfjlOOP15qZPtf3DjwAI3u7RQlRIClk7H1u1V4NFiEYB15mDgzi7HFjlHCnHH+qoc1EbDkn/QWnf0k1njE6elMJS3k1KRrpv4FJGMJcE+xT6C4pwb/+PQvhkJi2UraETSoLaho5HpH7C8m+oCsXJ55/DZw543DeV6/EZRefhGuu/Jr4k2uNDibMyOrWgZxOMZu9gaDkLc9G7pH58J5VI/KicuzweBiRPuMjGtTuJjZ9Ers70iTbARxy0EHGHIjy1MK9PSgf9MEZCYtQst6Xf0IU+jNap4vkaMRO2HdWWTEsHa144633UV46Fl4xs0JyzAyXW0UQ6e/ErHFEbUI6p11O3ni0sgnmu0OgBuFaiKrmXpLMpiAbv5m/DTNfmoOM6jFwFxfD6XXDSRO3ciQ+XNGOn/7+cRSPORTvfbQI++xZg7t/ewO+c8EZCHS3i3ksvpZoMFd+MZYsWIS8/ALk+wdFQxtzS5rds0gwEyTc1QdOwzjxayNyLMRhMcmy7egtft6RJtn2Qt5/QHwmbasSYtAMZH9AU1xDQjbTHGKtbuwVt0y2cgN+lMqx0soadHT75KADmcUViIu2MM+hX2T3ZMNTViPVeoZcJ1XUduw1pWpFFW7+FqJaWDskr0dwP4+rOSf+k8ftxI9/NAMrVjSgpz+Mfz05Ezfe9DOcdObF+P09DwtpIpgwugpvvfwMzvmyaGUpc1jysIn/1dEzIOrQgw/nL9YOzdliKprXTi1PKspcThwgRKbZyeE8H9BHZVIWdyvn7I5If59sO9FUV4+DDjpQfQyHPLIzPB78trRY5CGmw1gi0WjK98VEl4ksU+tFxBTMEAIuqhiBMxZ/rKZmW1Mj9ttnHN5+6RH4u7tVyKxOF077ynfw5jsfo6I8B2sXvIpIL+cFEWynb2XCpJEqDm2DYmuVEdzgtVhGLoz2mWAjcv6ELyErtxBBqUzC4ptRbfLTTR4nMHXKJMye9bhOmhMRf4rns0L4179fwV/+fB8mjRmFH113LY4/7Xy0tPnxlUwXflxdxitq/kNkT0HI6URLbj5OfOtdBAsK4JXUtXV1ckSsAZqqkt6shHZnpDXZduKJJ56Ql24RYbTruKkDq6sMIRDfLBaJamRNdiRTm9pMCCnbnHptdMCHiPghUUlWWVGJeQtWobF9EN6q0XCXVoqfU4I3SLDKSiFZpWRgBEpMITWxPeYitS1LQg1FU42mJ09j+WMJGxyZmQjLQWpPbYsTk5aBmusv/zK8Vj+ynBGUZLtw3CFTcNU3z8bMJ+/DzKfvR8jXpQSL0H8SbfXKq+/h/756DWa/uxy/nvETLFr6CVatb9PmjJG5uVr2IQuR19kE7AVSEA7CJYRmdDLKJgF9hsOHYERak20H+IhGVgip5J3HrA44Wxrw3onHoqS3X3t2hENiRgoplFhJIWGDL+MAGj3kWkzMe/p8eHj1OnQLydjw6xNNFfCJxiCES9lZOTotQSjajkTrekQHjI+f60HW7jsAsxwUdPqFbAR3u6U0niwUjJiOG264Gt//3rckoeQ72KfmYkjSOjIzlKA8PzQo9yXltoTDsMYS8JaUSpZuPPj3p/D0czOxcMladLW147qrLsKN370IB5/0daxc04SjhMQzpu6JUQOSr8AkC0m+4T5YLildPIYbe314tq4BKCzB/CWLkS9azWgw37iC2V0xPO5iFyC17jFNHcN3CSJbRCCTk46KIGgHYJEdRhNTzyFIulhy/kPizFEjcNGek2Hp7oRTfJaMnEKUlFegpLQcxcWV6BeC3XLTtYj39xj+k0AbgneQYIQKtpDLlZkNV0YWPLLWhnK7Q/xH4Jaf/h4zZvwe//rnv7Gurg39QVFOksZqd8LmdIt/6EVGXiGyisuUaDaHHe+9twjfvOxaXHH1zXjl9fd1Pv8jDtwDP7vl+1LRhLBoRR3yCoowJjcHuSmm89bAHiCsfKbk5yFPrAE+w5denJU8OnyQ1mSfAj4ao6+gFTWifeiLWTu7cdHkPXCzR8xE0QIBzgUvgsuhKBrB3uRpmgSlL0RhpVm5sKgEL66txaPif9izs5MTzVjxj0f/jIMPOxDx9nryA5G+drJXCrJxXaikZiBD8lZNo2U093PL0HxWV4YsWbDYLPB1tSEzy4uAaCdP1QisXrYex531De076fP5EQz61exlSczF1CX+9vnaiF4x5UR4HMakpbwnlyOMlR/Pga+5DpnFJfCOOwYFFgcemDoR+0q+Lt+AnL11MMJoj8ZQX1SKhz5ZjUfDMY2wLvlkBbKzMyXF8NABw+MudhFUG/ARmcSJRpAtZtXU4kJRUVH1ISjUKtxm2i3AJIOSVvy5Pfv7cEVFKQ5zCTm7OmETLZAQ8gkdJTVJoxlqvhsTLLltRDRUizL8byJl09AiNAW5k63jsu7pG4Sbn72tX4ex4yvQ3NiE7q4OZGXmoKikAqXUqrIUy1JYVorSsgo43G709vikODYhldHozDbCru4OfDD7eQSa6vQroKKWxdwVP4xz7fMroezsvA2wjDG5pZxoGJPyc+W2DI099/13k/c4PLBlqUhjI4REYCj4sZ5unDp6BKZwvIoQIiJEYxcqUyDYWrYlKLnkfM1DkloCfuT29+L+8aPx1Ekn4JScLI1CvvLaq8kzRNio9UQ7bhwwMLZpSTo8biWYXpFpUtKZ19NKQPINB4LIFNKUTzkB9zz6omrTYGuL+FyrsPbj13DYAaOR5wmjuZmka0NwYEC0mviUoo14fq/PB5uQs7O1GW0tTTjr5OlY+sFMOPy9sNutCAuJH77v77AP9KNGzNtSv6SPGzMGfyqkAomL15o54MP+JUVyY4yCAj+79TbZNiyA4YA0ybYDHy9apC/cI8u4gjxkMQrGQIeGw43InEb0tiIUqpkEpvBTgBhOd/oHkS8CWSSCyTNXLP9EtKXRFWko/Ray5LkNLe1y1pYFkdfgfn5a1lDEMQS7uvUaN946A5lVI4UYCfga16A4y4W/3383Xnr2EVx60emYOLICXmcMA93t6O5oFYIOIiSVgtwkTjr+EPz13hn49W9/jpryfB0bFxGCcQbiBx9+DHbRYlOKCnTm5NRvV38aeA9W+qemTyvrxrp61NbWJlPs/kiTbFuQ9/7AA38VYY9jj5ISHFBQgDwRJs67Qa3EDzYYH4owiLQpUvdzm9E0p5idThGmAZdHtmPYq7QUNjGZnvv3a3j5+ZfERzNC2GI4yuX5ija8JpqQpOSzL8+Gq7DM+KwRTcoUs9IsD6kcHeiENRqETczc4OA6HHX4/th/32PQGbTAmbAhMtCHUHstcu1h/O7mb+HDV/6O9cveQn/HYgz2LoG/bylGleQhULsGj959C848cgrCjasR7uwQhWiFKzsXYZsHHy5YhcPcTlyx1xS42BBNLbwNaCUiWpW+boYQOer3a4XFblgP3v/AVp/p7oY0ybYK6gsKcALz58/XNp1KESivCIFFtiNJGVJBYVpZb2zaGTB9MT0uIGnY1sYanJG1rFAQNRmZSIjGYBxx9rsfqHAxxE9NaWBDvtRsFMTTTjsNcOfC6cnS/Wb+hCmcDFBEw0HEhdSKYC/+dPdv8PEnDZh++ClwiAaK8Gsv2vwQFxNPNJ6UI9DXCX9HCwbbGmVpkPPDsEtlgnDUmJVLCMRrUHvb8ktEi/0TxaWVOLK6EkWixRg+SS3P1mCWU580e8wEQ/qb+/nMhwvSJNsqGIiw4oUXXkB7a5sGLI4YUY1chsFF+9APITQ4IdhePz01WdBuh0Nq8MpYBGV9A8gvLMLdf/wLXPlFkq+YoQ4XYqmyapJYhLx6dAUyc0ZieX2H9oNkpG5TUFhtQiKSldcNtTcj1xnF1d8+H70DYUw9/Cz8YMa9WFzbg66QC46iGrjLauApq4K3vBIZpSNkqYKrciQcFSN0YKaZLxF2OnH9lT/AtT/4ldiNMZxSVIg88Vs558eWyrMpNI08R1oD1PA0w1n5sGMyTXTh3rBAOoS/NfCpyKP59re/jRef+Tdi/b146ZijMa6vB3YxvXpiIdiFYdQ41EhbCt9vCySmU84NipA9NhjCz3oG0dXeiL72tbCG+yTfKIJiznFwqFEcahAGB9hnMIbCSSerjgsF1yDSXg/LoDFBTarpaNDBvB35K9dyFpRSKWHcvqfpvnAkiMGBfm3rIjQLWTgkk9vmEmr7CJFuY1Cpmq3Zpcir3BsVFSOR01yPOftO0YBHwmJEIbdHtJSwci8s1zlrGrDUlanPhSGRusZG48K7OdKabGuggIgArFq1SvskWqJxZFJ7ib+hofFkrU5QlHaUYAT7MTLIwSDBYVWV2rWoqLgUb8x539BgQii7wzkkrKYGITgvyHlnHa3bf/7j/XAUsxeJ/twKNpifPjEFnW4L2tuaRIbZ0OxCTkGxmnxsGC8pq0BxWTnKGNKXtRaF53Xxq5lG+xzLdNvPfoPiihpRRhEcOWakKNioznvCZ7e9BGO+NKGZviQjQ36Ixyk7txTw2V2R1mTbQHVlFWxixji7OjDvyMPg1XkVY/CJycjh9lrr7sATNGtpahsKGPs10lRK2OyYOn8xIiWlSAT70Vi/BPGeTlbwCPe26bmmFuMro4A6qkfi5Rfn4ORzLkV+lh0NHz2/BeHcUj0qeUi+PlsmZr30Bh76x5OoXd+A5nZjECWnCCjIz8LpJ5+ggzK/+bVz2T8MkdYWJRD1XWZBIbwl+yOzqgbOzna8LM+muqNV272cUgGx8tie58K+lUpMeQZ/EtfxT21dqtkZPFmwbBly8/OSKXdfpEm2BfCBkAAURvb0oA+UIWbSokMPhoOzLEUjQrLof6S9UsFraLuZZMShLccsXoHGzEz9VFEo2oF4W71oHxv8XU1G4EFAoWRaDWrYnfBUj4LbNVLL3Lnsebj5jehkZM9Iu+VC8rXbs3NgzcmR/HvQ0tyBJSvW6DGvx4OqsmJM3GuiRlFDbW36JVCOKmBEMepyi+9WjXFjDkWv1QGXkOvNo45Aiaw5fMchFRD7choRRpLc1Pqp20YZTJKJLsOjcOBX9c0IiK9Kkr302quYMEnKsJuDd52Gic3kUbSN7KPAjMzMUYIxlM9e6IzwbRvG46VJtiWwR75banBGLqnhrj/kQFSIz1dcWY777r5PzqJZFofdm61t0xRIFtHsRmWPhjG4dhmCPctwzGF7IqtiHBwFRXKeYa5xpDYxVI9u0mgdEz8s0tgAu38AlXluHH/wXrJMwaF7j8bo0myEWhsRaajT8L/DysGqdgTFnGvtjaG0YKz4bDbxKUXL5xXg3rVrlYTUYtpZWq7OeyKpdP57xcbPwTB/N+wbmelBJOzX58L95jQPuzvSJNsC+OpNvlEQGLXO5fyJJJwcZU+InWUAMB9eg/5Skfgkpbn8ALoF9/31QbJKjztdHtF2xvea+Tt1cdKEjAfxr8cewLkXXCqOnggqi0bNxx4Vwk5DmHmy3EgyKGJGHLmQvOw9oppKKxApk+ShXOZ1hKy8FsmbWVaJM8/9Knr8yW5doq04Wc6sVWsR8WRof05NbzBsu81p5p/lsOkUcdwmOAvxcECaZKlIyiLB+pXiYhEp4SQzxW6nCgyFllplSHA3gvE4k/IlMGpzo0F5AzQfWfgZoRinYUvYEBW78anlK7DC55ODCSxdthr2jBwxJ40Ipisnl2fqdembmQsR7mhHvK8dz86cDXfeJAQc2XCKv8by2CR/nk8fLPV1K0m5Ti4kn1VqE84SzM7HpqDLRYzyy7VcNSNxxDHnoTuQQJmY0T3+oJixorWk0vGXV+D3teLXFZcrwYQqKeRi1bQ5jPJvKFMuf9PXVc1nRUNDg3FgN8fGb/+LDhWKDeaLEfvibysy6etQMFX4TFNoUxhpU2tuc9skFk9jyJ+RRSVaLCJp4gjk5WJWXRPCuQWanp11kZGlAQTVKKLJSHoDJLoIrvxkfiQFv7qS4TZKcOBhJ2Pe3GUIJSJa3iGtpEc3gOeZIqDaR01JI41BZuYuFYH8o5n4+CP/xrvzV2r52bxQc8ixaO0xJsJh4OLh5jb85uNPEONH2eV65nRw5oQ8JoxcN4fOdZL0J4nubnM83e6NNMlSkfRXUgWC4O98b4YKbCQWpjRsJAwbIynIkheFyewlzwlBGaJnw2vEJoSRNU2z2tIKPOXy4ojX30a8qEDSxHRewqjkf/LxZ8BdVIUgKSDZxC2cT9/InwOx6XMxd3ajohj3dK3A8nkvo6GlF8eeehE6Il4g04sA2HZlkMpcVJNJGc3pudkD0xCHpEjI/iDvQc6Pecvx18ffwPU/+i2qS0vQ4o9gbcyJ2MTp2P/qHyM4bpowKo5ocQneEk10+vsfYU5uoQYvjPtkH5ANFZP55HjtVDjlp0MOWpJl6/4sJ3rdhUiTLBVas28MygWFQzveC1JnXNoeGJpvw3kkJwMX9F268wvx5wWL8fv3PoC/pFS1E02zkDCCpHn5tXdw200/hTsjV9KL/+X1JiOLhq9Gv0oJkvw9WL8eYyZUY8yIEvh8gzjosBOQcGYhe8Q47RBMovEKFGBTS6VqLAq9ElfyovbJqhkl52fj4KNOxg9vu10qDKfm4SwqxwEnnaUjqbulWphw2DFo9IfVlwsLqVZYnfjV628gKL4kmydMf3LLSFZKAhJRjXMlmvBWzNDhgDTJNsPGj8ScncppN0b6moEE/bDEp4B+nNKLvpNIDc/V+lxOi2Zmoq2gSLXXYw4PGiprNMrYEXciWjUBY048D53+EKorq/GHPz2AS751PRLeAoRtopncGaJNRTAlX5NgptnHqQ4Gm2uxfNHLiAyuRk9fGFmlU+HyjMO/35wHR3EROCsOQ+acOIcBFkOsja+xxBk6l3I5hVzLW/vlvInIKtsb/UEbysoqDHPOnQN3YSnWi7+UaYnpBEIN/igO/u5PxKS0gF+5cebmYY34hHf39CLqdhudmKW8qWb0lsBQjFZCyV8DA58+6HN3QZpk24BZ09tILBEgE6nm4pboNiRQcg61GEP+2j0qIwMvcvj/wo+RKC5GZtiPnGgQjf0BTDj1fFQfcwpi1eMRzC1FIhpBlvg3f3/8Gey3/+Fwl1TBnp2HhBAtYYmyEKqVDM2UgENMuwxJEwqKpgzG8M1LzkdhQSGKxcS75Nu34IN5K2Dx5MNTWgZPTgGsLhF8h1W/nOnJEvIUV2LJygbcfdeDOPbE/9NpuEvLyoc6GNN3ZBthaMUi9L7/qvipVnHFxFQVKeqLxNA+4NeZuxzir7F54eGVa7BefEwPvxOgREuajLL+NLAiU52b8rx3Z6Qbo1PBJ5FkDA0VeimjRCAHHE78pLgQl3CAYjSk3ayI7X50FCoxmX4XiuLlFavQmpmFhMulgyqb7dmomLQ3RhxwONoCxuBQas/CDDdW/+FH2nQQEtPNJuVqaGrCuWedhH333RtnnXgkakaW09lTwadQTt33BKxc16K3QQuNslpdVYNw2JhnJBIJoau7S03fspICHHboAXJqHK2tbWhv78TytQ3IyclBhlQE8YTcI309MkjA89nTIyqZ2+Sa9C/bhMzTvvVD9Anf45EgSrxO1C34AMEPX4Xb6dBzbG3tePSk4zFuoBcOfu1mk0dG8kWlsGx/7M4T7f7W2wgUlwoxQxg/ebI2SO/uSJMsFXwSm5BstNTkg3YnflCQh0udRi2r2k2OccoAPj5TcLitBpiYRuzJwcAGw/F9+QX4+cp1eCkcVl+H6QZE8CtPugC2ylHwy36GRZSM1JBJUzS+ZC7WvfcGajJo3jmw77R98Ozzz8v5RtlMMLlDdpRVjkRINEq0u1PLlMjPlTyNlPSXtPsWnSoGI2RlaAzCIFKfEDAQCuo0doccMhWrVjQiSCPO7YVVhP5LksfFkyagQe7x6SXL8LbNgfjk6YjnFaN87B4IRESDSRpbaz1Wvv4cyuCX5yAmaFsbTi7Mxy8rinTkAZsuCOM5GiRjdLIr3yCZX0iWEYtg6j774pnnnzMS78ZIm4vbgBJHhMEv5o+5bYK/uZjbChJMhJc9HgJWB3zZOXiusQUzm1uNqKKc3tzvR9ibC3f1WCEbe3vQGzHMIw5iNPMdPW06KvfaV44bpuoVV1yB2bPfwk9u+4mYjwfA4XLLG7QhLD6ZPyZkEoLZ21px7rhxOH/CWOS2tsLZ2wVPOKBDdYbay0SgY+EIWlta0KZLk2w3oaYiDzddfzn+9tc7MOu1lzEgmscupLB2tCG7vR1XHbg/pDQ4MsOLqw4/VIhthVPydsvS2dGqtx+Wx5AxYiwOOv18hIWu1FCxoiK8KRpN+Z2sxVKfo0l1jjVIyPPjMVYAbjFjhwPSmiwJPoQNr934LZKN0eUV8It5+GUx236el6kCwEe26Vq1kAg7SUT/Kyyq5InBCB5auhx1FTVKoq7eAR2ntde530QPPw0rvoo1OReGGISkmbwQzhvqgL+/H021q5HtlNzWL4e/sRa+zlbUNzSivKJCz2H5pABDBZ8iZu29xx+L6X192v7WL2bpeo8HdeEQ7v9wPpawrGKmanOAmJiNzctFZYut5+/RXsFxX7fRl7E3hMKKfVAgGiwv6MfDp52KKtFwBb29kk7ILOcMCgEmLvhYTLtqlIwZj2bx9UrKq+CUSiUkWjoizyLy/kuwr1uMCAMtcs0V46rh9Pm0UjHB5xIRjUitX1dQjONmv4twYREy5Nmcf+FXMONXv0ym3H2R1mRJGHLKOjVZr5JAyb0kDU0htk2RTDpZqFTLqUSj7iLYNmSNhdGfV4jbV6xEbY5oLPntEaEvOfBITDr1ArSEYvCHwkoERgaVYJIfe094hGCBnk50169Fjth07LaUMWYS8ibvi4rSckzfZx/ce/ddhkZiWVgdiGbicnBVJWqSZWL/waxAAJOEGMdEwvjd9AOR19WFBHuHcDYpIdBNl1+FeW+8IfmQrCIMWblYNn8lDj7kZBRUVmJ/8atmHHEExoo/ld3fJyYrJ+eJICD3GCI5hbyJUAAJ8S1Znub1a9EnmtRNDSdlG3XYMWgPhNRMJRje57MihtZyaRNB9uHks5WdbE6gfzgckCbZRuDjSD4SCoH8Z63LqNp6Xz8s/Mi6CL0hNEnzLinUJGJChPdjIcI9Yrod9focBOnAux3oEWEPTNwf7qmHoAMi4JIfh8uofybXo4B6HVZ0rV2O2sUfoa+lHi4phlX8GWpHX0RInlsK657T0Wdz4ZYf/wxuue7jjz6Cpcs+kTQWPP3Pf+Homhqdso59Q1hGju9KMNIXCmFkXw/mHHsE3j3uKJwrpm9BQx3+8upcnPD16+HI2wOWrAmyTMJBp34N3RYPTnba8dTUSThJTMGMoOQpZQxHxMwluXi/kqdXTE6SLMbZqeSevKLlAp1taFixFImAD92ipN0143UOjwTNP5KRzqBAtb/AfH5Ek5DW5nRJ2Y3948TsHQ5Ik2yrMLQaCcCH1BMM6yd+GNSgX0FtZtbG2mYmgtKalY1fCrn++vFSBEvKjHSyBLMKMOqgo1S7bBAqIa9su5xWuKTm72iuR1yE2Svag4QluUwSG4EV0ZZZ+SieuBfsRWXILizGxV+9GF8+7xzcf889mDlzJgrFhNMKQMgVEHL4hdx+IQKXsJAhY6AfZWJKXrHffrjh8CPgluMeIXJFeTVGlJRjtMOFXFkYhh9VUkxWaUWglYGURT1H45aVVJlCKnbo1anjkhqJz8oiGrq5dh2c/BwSB7xKWs7f4YrG9UPuvKehZ8dnQVNb0BuKwuEQP04qMu6vFG06HJD2yUzwKSQFiOBjYdtTVVmlmD4iFJ0dePuw6cgWIeWna/2ieZwicRQ6TSvm1+S58+EvLVMhyRRBqw/FMeKAQ5G375HoE5I6RHuxQZrBEY6G5mDMzqYGjQ6SaHT6DZBYpKcBndpACK/hFJJOfmcnwuh47zWxEqMokbIw4PDMfntjYsCPUE+XmIQ27aZE4Wc7Gq8Z5n3E4sjhJKVy/VdKSzFvwIe/vP0uvr3vPvhKlhcPt3XgT8tXIlOu/+ORVdrB+MSCfLiEuL5gEBzuwr6MJP6FtfV43epC9shxiJRR6xiixOghDeiEaP7AwndR5O8AOruxfK9xGLQ5te+jPFxNy3SsvEjg2wMR3N/Rg7DdoWb3inVrhkXwI63JTJgSnYRR01pRWFyskS4KetguNbNAQ/OiaSi0Ukdr2ja2LUlar5hiWXH2b0xgj5PPRcl+h6HfHxBiJMT5NzSZh9H6sA9dQjA3yeCwqTak4BqLIaz8y0U1mVyPsNNcjSXQn3Aid4/9YCsfgT6/MTcH9QGJyJJT0Hkax2aR2Ozl6JR8HXId3kdACFDozURhRqaU14LDi4qQJZrupMpy7FdciFhhIV5ctRbL1q1Fp98vWtiu90BfiZUIt7NpPkvejFqyvyEJzYUVDzs226MhxPmZJSF2lvhyvA+WcUiLsVRiKhg9VoCOQb9aDuYH3odLdDFNsm3gxC8db9TeIlAtYv5YHXYhmQiLPDkjJC5S4fLgQxEQEQ15ojZ0BcUfmnKE+GQjZFtEXLSUTvYZ7MZAUy1qF89D27pVQjYxjcQ4JIE4zITCyWVrUG0mDgsJw8GcoewC2EfviaKjToFj4r7J7lbJdrzkQtOTC7d5Hk07mq3vrlyJ8x/9B2a8/Q5EtNHa2gprMIDioB8TS0rg6+7FPUcdhu8eMA0l4ldG5BgNRi2H9pm0IMfl0rInrBxOs6GSMEFC28WPi/X14vSR1XJ9Q+CYhNrfICMrLc40GcfKru5kmeWYphoeSJNsK6AQcBk7dqxooDhsQrKOSFT791FMWCMTTENQOAjhF5yFJWom0kRTU1LOt8ajaK+vg7+vC26XA04RQBLGPH9LMPm2EfHkOkogkWZqLWqMgYQDjrwiFVgzt6Fy6V8DPI8ECYfDmDBmNPYsL4PD16/zcqzq7RFpt6NXKoyGnj4R/ARcvj44A4OICsE49yLBsug9SV56DSEsv/iyRUSjGjH1iuabICZnRDVe8pjAfGbUvXzGbVJREazEiE97NrsT0iTbCkwBOO3UMwxN5HJjblsnBjgXovx20K5JwhIOYjLNRdlFAY64M9EhTrydw2IojKEAmlZ8DK8Q1OuU2l9gEoc1OJdUc9GEucl9JKSajHIi06v2k7UjEdEe9mHRJt3BkDHnIcmUPDk1D+18K8c4WzHbvx4bUYlXjj5GhfmZlnbMc7px0Wtv4bX2dgTlUr0uL3pEWwWdTkSESDQRNR/Jj+c0B8RH83rhFH/UuA59VDOwA4SkQmH/RkY9p+flICqamz1CeJzlsEitYKF1QPPQ6kS3EJKmMM3x3Pz8oXewuyNNsq1BhcmiH6S78MILtef6R40NaJcXHxZfgd+LpplDgaDPVhQO6FwdmS4R/brVGpjQUc0iUG7xfYiYEJOdhWkamosSR5bUDsdbgkkaXScJpmvJIyFlC0ZjWNTeBj8HlyaFkyadKdA0FU2o8MrSJ9q5R/xBv6xrszNx1qr1mBeNi2ZMoFe00OUfLcBvV63DrEAI78ZtaM3NR09uHvpyctCVl4fFPd1w5xfDkZGjlQYX1j0cO0cMdrTJnwGcNGakfs+Nw3XYnqfpzHLJWm0D0e7I4pyLho3wjW98Q9fDAWmSbQ0iCLoI9t57b+oatA74UOsbRMDpUb9BRwjLmsKSKVokKotDHmmOy4ZAW7MIv9TMFGj1YUTAkgL0nyNZIIEZLOAeCjaXTzo6MSjX0qkJ9JhxPRKMZdShKvydfOvrsrNx36JFiIqWamlsQm9XJx6870+YNWumdkKek5mDR30B3LJsFW78eDl+vnQF7qttwKNt7fhXTy98rgy4cgsQkXumeSmlkHIZmorliQd8os4CqGCjumj4TUGyMX1UtkM20XJiLbCczGnPPfc0ntkwQJpkW4H5gkVccOY55+jLHxBT7OX6ejSJMPBLmTqNgGgv+kUevw95A306dsohJtL6d17X/ay5Ob2125M5pI22BxRAE7pJbafit/Ex5sm9vNb7Xd2YXVuvpNGp4KTMJJpRTpqUdjEnDXORPYpPe202nvKHcfedd0j6GPzin02fPh0For2fffZZ7DVlIroCfrSLdvSJ/3Z/rx9/tHrxvfVtuG7xCrg8bu2hwj6HqYpYAyMsbX83KqRcFYM+jXaq1pff5nOg9ub4s5g8zy4He+0zqmjD/gcfjMOPPEKf+XBAmmRbgfmCzTVJZ3V5sLqnDy0itIR5jFqOFBgpQsfIHbtI8YMNPIdpuLa5GO7+75AixwqSjeYVr8Ey9Il+XdgsGlR8P15TKwq2vUmZ1IwTIWc4PZSVg86cPFiLS9He3YsLLroI69etQ2Njo2q9HDnW0d2F5558Ck898TgOP+RgNDU14as33YqLbv0Fzrnxx9jrtHNgd7s0SurlrFVSBpKHZizNYnExkSGEHpVfCKf4bvoMNr0BAXvThIRgDUJEgvdx6OGH67aWfxggTbLtgQiMvnBvBlaIRnlm9RqExWGn9uBC4Q2Llvv6+PFKME4gU+K2IJvtX/KbWiVDZ5vafqRqPXPTIBWPyR+BajHZtDAELryPlZTipZ5++DO8epzUY7MC/UlGHvnZXb/4VN9dtAzHv/42LD4fJlWWYa+99kRedg6C4SjGj5uIYtFacz+ah7ZgBKOm7oOy6krtu5m77xEYzCpG7uQDcNCFV8A2aiLy+zvQMvtFeEh2uZ6JTPmdGY/g5HGj4YqEtNyMsm6khcV8dci+5swsPLt6vWq2PNGil195pR43K7HdHWmSbSdoArGWj3q8WNXVp8PqKeA0f/jhCZpMkwpyxUTqV+K5JX2GXcw1ESQS1Onc0YbVjQVMo48ixBrwkGsNcZDBD/nB/RaXF12iXfrkt0XKR63KyUe9QhB+E21tfhEe6ezF7HAEHVIp9NvdaO4dwPIly3DrrbciKzuDko8nn/wnLrn4a6goLcGoykqEklqGgzi5sPmAvTQuuvGnaOvt176JNvZpFFCjE/ZIBLFACKOF8OoJUrVtAj4XtvfVB8L4pKtXSXXcccfJesPx4YA0ybaCzV6w1LIkVSIrC2vEiW/MyjN6UgiZ2EOBZllRLIIx4tdwpLJVTMpA4zpkOpxKUDvD3DskNBunZS1P8pJmQ/kkAynJYB6yKkcgmF2AR1auQWturjZCD4gGrSsuxJ+EUGe9/gZ+tXot3NOPxbf+9jR+8uSLqDroKIyprsIf77nX0J6y1FRXa34Mx9vFBGYTAbthGZ+3JdkNX4+deX3ROJyl5RiwGuYwn4lXKpdYZxMyQmFUDw7qfP8sIxvvUzU07yck/tjjq9ZijeRFLferX/1KcjCQ1mTDHOYLNgX6sMMO033sCmTJ8KCWH60TYm0wkORhBoPYKy8Xcd+ACJAFg60t8IjAaSidBN1Cbb490DIkzTGWYVPhY96EU4jvdHvwUUcH6r2ZaJayvNHbh0dXrMZf5i9CrdWBDqsLl998GxylVeiWwp/21W+gpasHlRXlKC0tlVxi2H///bFkyRK5jpGvz8dG4g3XZHlItOVz34WzoAjZlSOVXGY5qNVCUtlUC9G9UiHRZFXT1jg8BKYnyRa1tiIufqJ2z5IKabghTbJtwBTovz38kFTtMZ0kxuJy4cGPl4iw8be46iIcFDxHKIJzJ03ASNnmKOjmjz+Cv7VJfQ9qgw3D/bcPplib5Iy3t+ia0D0M4wv5tOeHSGzUnYmS0eOxTMh20axXccTsubiutQf3xmzorazBbX97Cr9++T0s9oXR1O9DY98gBvIKkb/XNDS1d+G3d9wOv98nZLBi8uTJqn3YZbmrg/MfWvUbAHpZuT+L3Pvfb/k+qvc5CP05RfIcGGU1OjiHOlvQ3dKAkyaMgzPgQ8QumozHWVyzWmK5pUJYL0ubaMuQ2yG+oDkYdcee0+cdaZJtBaYGM2Fzijkkwu4Qy5BkWSa1Px+fXQSCKSn0NM+qRMvtIRqE5Iz298DXQwE1GqxpVe4YDGFjXuyGFWlejwj7Hprso7lotpdJmpBUAAkR+D5/EM7MTDhz+aEK8cdk6WhtQ1y01+q2DjiUlnIvol78wTCOOucC/ULMg3+9X8tpVCySt6x4bz7/oHGDSXFh+1++mM1gu1ZGllxX7p2+p6aII9hnzPw7iT6e/FZSJgmYiqDTgY/kObKsDB595Sv/lzxiPPtN38HuijTJtgJTgw1BfrIfI/fyWH+u+GRejzZGm427FKgcMRkvmTJBzCUfcqxxtCz/mMM0JRUjfKLNJAMuO2I60tRyRsU8Fa0wctKeiFAjsnxJTWYKI3uT9MtSftiXEBy1J8Lj9taAy0BfP6743R/R1NPNdnHVUNQo7M5kFy1cue90XHf7Pahbsw4dnb3w9Q9g5SersGCB8VWVvq52ski3We6qgly0LluMEQceioFQVMxDswxWHQ8XaG1AthBwQjgoz4YdqqltWTtJGjlf713KvkA06d3zFmnlxODM1VddzYLJYhBys3ewmyJNsh3Ad66+JlnHyoMTR31QzMaQCAKFlkxQQQsGUCaSYhOyueR4oLtD+yvymE0EztB7ImM7UEvr5Kiijfi6bB4viiqrhWgb1KIpjOaaXas85dXILy3H4OCgDoUZI4QgNrxwgxgU+I7eAVRP2UfnWXx51kvIyPTg6quvxmWXXqopmQe/U0ay07+yB32Y9c/H4Mgp0GuSJMxH52UUH8zJtWi/DPFbGdzg86H/RUKTXLwuz5vb3KxduwjmbWL7n8zugTTJdgCnnn4arv7BDUNEeWTdOrRzxl3RLCZpXFJbF4rGOLygADGHA25/H2zxkAhVAk4hCEcSU6C4DJl9m4JmIJeU10NBdXoz4AuGYMvO107LqhE3yYT5cvTxoHCw/v230dXbh5O/cRnmtxh+FYXeKKusRWNwunDOHrys24fatnZcdeUVeOaZZ/CEkGjmiy+yNkC3L4DCsmrV2DkeD371zQvRMu899Ec4EkAIIxfldfMRQai5Dtnig5X1dMHG4T+St6HJ5NqSlgvTMq/HOkSzFpdouTXEz/sxfg0rpEm2g7iKNfzl35atOB6sbcQD9U06MJJCRGLQDGOb1NcmjkdENFeR14He+vXKKFdGpgr1Ns2gpJ9lIsKe6TYbHBkZOiEqnbuYkJnCauZlRvYIju1i43BuqBeFpaWyVGBkvjEpDclqduA1z9Fp2+SccUeegLysTHz94q/p9fj9alYOHLBZOXYCgnJ30dVLxXzswYRDjxRT2dCmjCzSFIx3NaJ//XLEurtwclmx3LJBZIoZy0qykZAu0cotBcUYLJH8Y6LtxIa9+Rc/17xYtGTxhg3SJNtRSM3+3e9+V1YW+LJy8Mq6WgS9maodNJwgwsrtKqfR850P2N/Xo8LlEP+IGoj7qYCMhuWtQ0mU3NbOxg45n04VTTNZpyoxCiZJo9pNfvO4+jahIO7/9c/Q8eHbWi42IodkP7eVoNymGSfYR4iTnZmlH6vwik/FyW80M0mTnV+obX4vPfIQyiZOQTy7wDiPZGcppUwB0Zo2qQA4r/+EkiIpv+H3yYWMaeFkidC4lDznBzlbl0HSvLw8XHzRV3Vbb5jLMILxdNPYbrBm5zTWnH8wnpGF1uwcvCaCExINYKW/IY80IkJZ4fPDKX4ZadS9fpXGDRxetzEh6XaDZ8siAszeGzYhAOcvZNctgiRMJRo74XIfpy/g0JcOEeQshwWjcr14+pc/wspH/oKi1jpUZXkNEgpBbHEReyGDS9ZTvnQ61rT3obyyBvfcc48GSVRE5HqjJ05EjmiqVQs/greiCj1SEFYq1GYM59MMbW9tRJ7bpVMYHFyUr3N1kFjsJZIt2j1TtDBnrOosLMJP3pwj1zXyX7RkiVYQm4P3v/sjTbIdBU05Efobb7zRMH9cLrywcjV6xN8yhYKfCrKJBmGjNIUn0t+nH0y3cxIZJyfBJhF0tXVsYjIqmYb8qW1ATEWmLx43GT2hqJpzLqkc3n76Mdz5w+vQvXIpxuRlJROz1Ma12rr7kD9iDHr6B/D4448nryX35HQiV4gx85G/oWjseCFwUgsKeCa3ySW7XconZNqrpETJpM9HsiDRgjY7+kTz9+UXYa03SydHHWo3NLXqMMXGbzKNbYKkoehddvm34BJ/wiLC9MZAAFfNel1EmWGAGKKWGOyREIoCfsOM6+0QIRdhFD/H5cmShy7CpYGNT4eafip7knPMAofDGFVtYIO5aGgvY5tgvI8kHawYh+JDvwTH+H30O2IjinJRYQ3jXz+8Cjcctg+qXHaM5NRvcjL7XvpDflzwvR+IBnLiww8+lLJb8erzMzHuiKOxx7T98fFbryNXiEtSsr2Q4DbJ6JX7yWTXKDEZD83Lhs0fUu3rz87Fu1K5/LlvACe98wEOeWMOzn3tTdjzC+S6FvzfBReSpUZmm2F4iGeaZDsIioMpEtqXUH64szOxWgSTGszQCsbEOcUup85h6BJyJaLGF1vsnL5AabqdEEHneUM+lGo447WZxGIZTMIRpraj2dgrpmu8qAK5k6ehNyxmnZQ+w2FDTUkBHv7x97DgqUcxPj8Hpbm5OnCybNJUTNl/OopLSlX4Z7/3HkZO3AOZXo9ouVH6oQz9ML2Qitenecx7jvt9orLDOr122UA/MmW7gR85bO/ETfMW4u51dWgR3yteVAS7mNj6UXcpyz8e/Tvel2sMaWiuUjaHA9Ik2wGoIPC/rCkA377mGoNoYvYEysqxoLBYTSSNtEmKA4qLkPAPIsstNXpnu35xxe72JL8guW1NZr4ek2AbemMYSCVWKjbSbEJKv5ArlJWP/CNOhYWzGFvd6AvFEKxbjff+8SCuFa32y9OPxsjeNrEMnbjomhvQ2efD3XfciX+LJptWWoiLjzwYBZP2lvxsHJ6m16bmDohvyt8DK5aioKUZF0+fhnliDv4iGscpr8/GQ5096C4u1fntQ2IyNrS3IzM3B119/WI6G+PcvnzOlzGissooL+9J70vulathgDTJdgCmgJvr67/3PZSVlWkQgZG4Rxd/rPN/KCFE8qqys3QCVPYK4XARCpQj2fhqEmdrSD2i6URzsK+kNhOYBErBEKk2BdPLQWqcASGIMQvxnnBWVKkGgmiU0UV5KLDGcfePbsDCV55HltOYfeoXv/gFGhoa8Oa/n0aopxNB1aKSU8q1nJJLls2CkJjEhfl5cIsZ+Ns35+DR5asQShKLlQO/VNrR1ooXXngBcz94D++//z5q6+q1qUDNbFOTDUOkZxD+byAaixJXU1Gp/ktCiHTnflNxiAh2Rv8AFrq9uG7RMnRmuBCccBCy9jsMLjEp65d+BI9DBFmF1tAKqYLLmals4utxbnm2TYUtdmSK12QTQY/ve4wxrfeqxfS8hENGc4AJJW8yM53LkaM5uS271D+UtOZMxflt6+DvbUeEDcfcL+fyk7idvT3IF1OPpCYFBoMB2PNK4NpjmvY8obYmcaKcArytAeHuThRw4iDR0OyJYvNkaOielUNjUyNGjByFE044AX/449163aHKRcpzxOGHo7G+FpFQGHUtGzpA6318SiW0OyGtyf4LGEEJK8aPnyjbcdgzsnDvR/PR4vKoEOaI71PEaQckYXigmzIlvNp8qIpyQs43F2odp/yNNq1DZiys0UG2j7HRmGAKnaNetmMM70t+nLHKXPN8+od2YY5XNAUXD7cl7yzJIysS0MWWV4icipFqwkpxpVxCPskjPyfXEHJWIkI0TkFeVFKMwZWLMLh8AfqXzceArH1LPkSiuQ65Cc6ZL/chWtouvqlGFSWfeiHY1y75OuYvXIC77/mjlt28d63bZfPFl2ahublVTrahvbVNjxHDhWBEWpPtJDz79DP47lVXwiV+l62zE7OOOwJWqdl/u74BLwz0o9WRh4rzr9De9G2fLBZiCRVEpnVauE1A88khpAjOmalCnjFqggYeKITF51ymM2K1r1igPUs4aSpnhErEIoj0dYHfcI4E5DcDFMEB/dQRxdUSY6DB0A5sz9O1odB0AtJNNYeKhbKfZLZqTxOHjRPfkMhGel2U0Gxvk1SinVvb21A9YhQuuugi/ODGHxr5EJI3c2flo210SbDCqCwtR19PD8ZPnIgFixbqPgZFhgvSmuy/wJCgyXLaGaerAHGG4YG8PLza3gmHCHaux6PCGw0MGmmlyrfYje8pbwylgm5RQwZ5XMzCTLsFvetXomXlcvS3N6MoJgZkVzNina0YqF2NvnUr0LlyqS7969dgsGGdHrP0d8ETCSLXJhqVi8OKbFmyJD+PPSHaLQHGOd1CEGOWKLmoksoAG911LSuOmfOIpJDcqfesMxZTkybFqF78N3aKXrRokRKMMInLvzznk08+MTocJ0HqnX322TopbFdHx9A+8xrDAWlN9l8gtcblY5w4dhwC1CIitD5/EIsPnoZXBvz4xcrVaAlGUXHZLSKoCfTVrUfI3y+awZYq10OwCRE4tKV77mtKCk6iKtIsAmtDv5DVKSR1CgEp3hRikptNBR09vXo+zUibHK+uGoWqETX6Mb3cwlyUlZTD63VrqanxBgJ+DPT2Yf2a1RgcEB9y4XzjI+7yr7igSBvOOd4swB7Hor3sQqg8r5i/4m/19vfhpz+fIfuseOutt/DRBx/i9TffwMgxY/R8gmWrr6/H2WeehXnz52HmCzNx4klf0mMEnxnT9EsZ9thjDzUz19TWDTXYDxekSfZfwhQUEyPKyzWa2GdzYt+BXpx/3DG4cdYrGLS6UP6tWzVwwIlP+7va4XKIbuDTpx8mBGJg3ypmX+u8d5E30Kn7qSV0rkKhVGFOJuoa6lSELVYHTj7tVCFSlU6NMHLkSOy991QWQZAsExPy9XKb/h4DLVxrkpRtaiLNFAj7A8JQ4NuXfguvLVqC0UecgohXfDS5n8x4CO/d/XPkZLlQ39wCndvROA0OKePPf/oTXHv9dTpVHPPcd999sXDBAvzm17/BdddfbyTcBGZF9bcHHsSPb74JF371YiHvz+V0SayBpS2ctJvB0PNp7DgM+RoimFlX3XDTzRqo8EptvzQcwZ/enSs1s1s0jwi+JFFS2tk+ZKTnb35R0yRrcXklkJUHa814ePc8CBlTDkDOngfAM2ayap6TTjkV373mWrzyykt45ukn8fs778BZZ56BfYRgRlFM0guBuKKQyn+KsiHkfOXGNvfpfoGpfdbVrUNzQyNGjRoFiysLQW8OOiJxtAdD8En1EZVyapklA2anWcq1PJkeNQX9fuOjEcSiBQvxve9/X4ln5m8+J/7lYj6TAw88UPfPmjVL15puGBCMSGuy/xQqIclNeYSpZOP2yIoq2Tb6HukEMdEo8r9+k85fGOvvRldzoxAvGXkQjUKNxnk6QpEwykeNhSe3QDv5qp8neSYsDqy6/XtIROjPGCRJNVfN7dSybBEp5d4SVixdon7V4kUL8J1f3Y3Ko05DXzI445H96x66HTnxIDq6OjEopqSZF3tu/OC6G/DYE4/j4MMPkXIICVkO0UbNzc3o7u5GZnYWRlTXaHr6nTyu5U1mMrKyQu7Dgu9eey2ukeXTyrk7wXh6afxXSBVqU3BOEVPO/E2jjH/pJxGMrg2dM2SyMcoHuJ0u1Ikf093br+SyChE59VqcDcTiF0VDITJZ02uAQNYGb7aDYCxJyvWGTk6BWf7s7Gzd1g/ysRx6NKFfcCFYTrmkguk5vTeJ1N7erv6emQ8/HFFdXY0999pTTdqKigoNdKxZs2az8vI3K4q5772X3DM8kCbZDmJILrcgyxQSahSRHNx1zx+UFOCH+QQO2UcB0u8nW8U85DEBNZgO3xefzBCyOHKFCKH6VehYthAtiz9Cx8eyyLYz04vly5dr/noZOV+DH7rm7i0UaiPwdZt0EZgnJsHrE8ynvKxSysWvgDr0O85sSFu/bKmQzOikrMN9kmD6kWJe+iMhzF+40DAZRYMxGPPX++9HJBY1tLEsnO77ySefNOZLMcvLlRzr7e0VUifwwftzMWf27KHy7O5Ik2wHsYlcbgQKjRIp+fv8Cy7QfTSdCI67UiKJJhtqK0qIX8Swvjb8yj7+5msR0tkZRXQ6tesRB0C6XB79IqZiqBD/2Svc0j0MCb3A7XEiHAygq6kenfXr0FG/Rs4Rbexw6v3ofB2pkHLz9JamhmTfTKlYOMMXs+QzYBKSRvys5ONQGESKY8DXBz+/ryYpeZwmZmp5dmf8Z28ojU+FWQP/4le/xDrxvShYdPD5dRU+cI6ONsgnO0VrGQbl1kHt5hB54yQ68xYuSO7dNTDL7s3IQjwUQLC7E7HAgEY9WS/YPB69n80gu+xSMSxZsmxIe2sqqTx476xENNbDbeOIXkuJJOsOtpGZvwXsMzlckCbZTsYGwTEfrUEoIh6moCYJJr/N/VsDTcnUdjSL3a6RPwrjroZdrsWgi1kBsKxcbHZqMjIljp4uY35FE9zf19c3dF8h8R+vueYaTN1rL+wxcSLOOuss/OGuu/DKyy/rcTMd2xbZGO1Mdp4mGHwxCb+7I02ynQwKjikbSWohixOBClsSIT9sScEyBWzIPBSw/19qZ9/UbcKVkY333nnXmExnFyNDtCajo5zqICG+WVzKqdMecKhO8gbffffdjYjA7z7T56J5GxEtSKLccccd2gNk2YoVePDBB3HxxRdjv/32w7wPP0qeJSZmS4tWPmw0N6FNCOYz2s2RJtkuAGXDbBci0xipU7+M/QiFbGY3JGopitE2RSmpFdkdq72lFe2mX7YLYAq2WH5yB+JbJZshFEIokoHE4rJu3brNiBCKGNqaWlAfAU1LLpI+OzcHWTnZyCvIx77T9tM8WAmFA0H18RgoMcGI5Ab67t5Ik2wXYUP4A6iqqpIHbUFMzEX21OAYLo4/o6aiIJnClGoemlqMawoyP7LnzMhAa3cX3v/gg6SA7kLY7NrJmPNEDhFP1uz5EaV/JdtvvvmmlJ3mZFzqj5CmIbmcTrv4VHVYuXwpVi1fhtWfLMfqlZ9gzeqVWLd2Nepq16FRjne0NKOtqXnINOzu65GcEvr5YH7OdsMT3L2RJtlnAEYIKTyMLnJaAg0GxI1I46fDOK4RNzHFrKLJKNIMCqjA72SipebHeULiMdEsrBBS91uNAZ0Ev8wpB9Hf34/69bVSEdD0NbScQ3w6l/hYDP+zlz99PAZEEkJaaqzgoB89PT1DPhyJZpN03D5g+nTVfjv7/v5XSJNsF8IUEa9X/BsRmmgkqJqKQqZBBRGorSFVqxEaofNkUJ2oBhnKfCcitTwcasOIYCKy8QfV9VO5ol5ZnvVr12Kwrx/d7R1DZiSJQtO4pLRcx6DR7BsxaiRqamq0MZq+1piRo5CTla0ENJsoKkXbV5SVo7CwED/4wQ/0Wp/2fHYnpEm2C6DyL/JhioibUxJQYMX84gfRw6GA1OpJX4c9MJK9MJg+VawY2WP4ntC13Qm3KxNz5ryj+3alEIajcUTCIR2PRi1qcDqus/1yim26mL19vcgUfzM/Px8lJSXaI7+irAyjhUSTJ+2BUSNGaqO1XbSUQ56By+2Bw+kSYrmGRkmTmF1dPSjIL9SK58WXXtImDuOgsdrdkSbZLgaFyONy6jTYtlA/8u0JhMJhRLbAD8rUluSKZKLmYC8R9rigebarYBI3Rm0boe8YHdqXqlkJ+pnxaBRrRaNdePFXUVleoeX0+4Po7jaG3ZB8qoVl+b8LvoK/PvBXzHrlJVx55ZUoKS/DyLFjdGqCgYEBoXACJWWlxnOgqbjr6pDPFGmS7QKobFBSBBwDxq+lxCx2NLz3Bt761Y1wrlqIslhItQEn3NFoo2gz+l4MdOi8HNRuyUZf0zdh7367aASeR99HlOPQsZ0JEiIcDmpTQYydgAVaLlnCUlab3SUXtqO6qlo0VRaOPvpYzP9wPjKyMjF6/Diccc7ZOOe8c+HxeHSs2D8efQS1QsSbb/wB9pgwEW7x1fhRi5HVI+Hg/CXeDJSXluGhv//dfGwGsXf+rf1PkO6Fv6vAp2pwBI/+/RHc+P0btI8iTcCOYFS/zFK0/6HoF23BoS5qTtLZ11FlSa3B0L2QjSTkgEar3Qb/h6+jq7FOTCsOrmTUUZPvNDAayEGhDLeXVNagYNI+wMhJhiYWUckQX80393Uddc2R2xrQkWP/95Wv4Oabb1aiKaT8Jx53DFavXIX6xgZ4xVSkb8ZvpbFvY1dPN7Kzc9U3I5l5I3VNjfrYCL2tlGe4OyNNss8INWUVQ332HAn2bAfaREnkTd4b3sIS+BIctGm8ik3n/eB+DgSlLxT/ZD4GG9dj0YL5GDNu7E6XwzUrPtEgBv3IyhGjUTJhT2SNm4xwJIZIdxtC3e1wD/bCLiSnIfTPp5/Sb0zrvQnZqGGHmi9EtK75zlWYPXu29g6hqJmmJ8nJgNDo0aN1aMuxxx47pLkJUyzN9Lsz0iTbxdCaXv6ddeppWDBvvgiPaCoxEY2DCfSFY3DnFyF/j6notPCbnPzMUEI1l5qFsq0fm5DfnEjVsn4pgvVr8OjDD+FLJ5+0gWQ7iW0myRhyHzl6PMpGjETC5UEkFEKsr1cHnzIiaGLmrFmYvOcU3U4l0RDkHtm9itMQzH7zTQ3ZM5qYnZuLM844Q7/osqk6ZgCEZRguSJPsM8Trr76GZ59+Ei8897wKEslGjUb4wxFkjd8TjrwiBF2ZGFSi6QtSM9OaiOjnh+yt9RhcuwznnXYK7r3vL8bJOxFr16zS9iwK+bhxE9RXInFYOQQCITUHExy6Iqy+9FtX4OZbfpQ8c2NsSrgtEnArMNPuyDmfZ6RJtqshT5cmlEhLUtHE8Zd77sXj/3gMa9atF71FAgnfElG0x0RjZeUgf+weiGfl6tdTCPXPkr6Zq7cFfcsXYur4MXhjzmw9vjMFkT0y2GBMko0XklWUl2nfQvZXrKioFO0q12L3MFnXNjYNaaEtEWNTkuhtGJt6jNiZZf+8Ik2yzxipD/vpJ/6JaznMnkiIlkqEVejCNCPF5cmbMBVWbyYsGVnab9EvpPOEfPAtX4AeMRlDolGUujtRThvqa7U3Bk268eMnyNquX3thsCJTzEb2zKgQ7VZZU405c+cmz9qcUFtFKtO+IBg+hu/nDKlkSt1W+aJAyuqs887FHb//PfaYMkV+xzVEr7QRYc1zWuFb+bHO1htasxTRutXIDPQgS9Qap/jWulHSqZZklvr3vwevzbxVw4qW0m0xa7vaOxCN86swRiCG5qKJ7SYY8QUjGJHWZP8DbFEoxUWrqeKc+sYPCrHNkuzvlzTJQhwMKYvdYUVXRzsGI4bZtjPR2tKEvu4e7eS7555TEQpFEPQPauCiSrQXRxQUFxZpc8LauvrkWWl8GtKa7H8B1UACto0J4bSekzfx0ksv4atfu9gIh7MNKm4QjJ2JOf2A1yqLA+DUn+yuZAZNdib0m9RJ0C8jiU0i02TkRDgsl7ZtCdJ19LaRJtn/ABRZFVsSKEWIJ06ZjNt+/jPUNTVj4YLF2HvfqbCJ1oqLf8Q+g1GrXRf2vNAon3HaTgMJ404OO6FoeMUfZMCDfQl5LfYxPP5LJ2paEpzpzLLrOTwtzbnNkCbZ5xQFRYV49oWZapLVNjZobwhdGhtF4OW1CdPYe2JIsHeCcJMwZq94mqwZGR5RtmKiCuijMYx/4nHHixbjvo1FR8lGvu1k4g8HpEn2OQU1g6FRkgIsMH9z+mti3rx53LlThZsEMxuCbck56dVsTebPjx4Gg0HdNsuVxqcjTbLPKSjAmwqxqS1mzJihv++9917u1O2dBaeYi0aPDpqLxkSm/AqL6Z+NGzcO/b4BOSzXFZ8yjW0jTbLdDNRm/I4X14sWLIA/5TNEOwdW1WbMn21iBLdJMq7Zs57NBtpjJY3tQppkn1NQoLcEahOablyvr11vaLOdDGoy5p+TmaW/aR7yNxcGXZzaThfDe8NsOu1dhTTJPqegQG8NPGYTQRexx5w5c5J7dx44LQCvodNzC3w+nxKP2osDOTl3B01FznufxraRJtluCDZU33zLLToY9PkXnk/u3XlwezNVkxaWFCuROfEo/bNRo0eju7PL6EDMeMunVARpbECaZLspjj76aBVy8wVuzbz8T0ANxvw4Kavpf9EXe/yxx3TcV25urn4fuqioSNPvzGsPR6RJthuCbVbVI2qQEI1SWFCIFStW7FStws81sUdHeUmpCgibDDiI8/vf/wEGBgbBuUZiwquDDjnYOCGNT0WaZLshTM1BYjEC+MYbbwxF+3aWVmF+hfkF4FyKJUXFOq5MG6Tlr9lmllqONLaONMl2Q5hCTd+M3Ztu+uGN6OzsVKFPFfhtEc48vlk6yYKBDk5vkJcjpiHn6xdmHXTYobjvgfu010l9c1OaXNuJNMl2Y1DISZC+/j68+uqrmwn9tkhgHt8sXdwgK30vfoKWYXv+fvSxf+C444+XH8l0aWwX0iTbTUFynXHWWWq6eV3iL13/PdVs5rFUbFVjbQo5XF+3His/WaakmjBhAqZPPyB5MEnGNMF2GGmS7aagwN955536uaGigkJEAkG8N+cd+H2DwgNhghDGJJWSI2W9KdXY2NzR1o5VJFc0jszMTO2jyAlwOJvUEDnZjWrTk9PYJtIk202hgi+kOe+883SbgymPPPJITJs2Dbf/7nd44fnnN5BiE2IMKaNEDIO+fnR2tCEWCWHMmDE6468GU2a/hQMOOAD33P1HnchHkdRk29SIaWyE9Mjo3R5xjCivVC3FV2msLTpVQFtbWzINkJOXh8mTJ2ujcmlpqe7r6+nRc+pr67QT8Lra9RpVZD/F/Pxc7dnBvJgnl/VNw+cTs58l0iTbDWGSyYCQrLJKycHPMhmhfOPD79w2w+0kEbtH8WhCCEjwCyyEw2bXeRb5gT5zmIslOY6MeTGPo446Cg88/FDKddPYXqRJthtiY5IJxCzkpKEHT5+uH24wo4OfBp1kdQhJYsk5JJSOepY1pxo45phjdLS2md9m105jm0iTbDfGpgI/OODTL6y8PGsWli9fjnfeeUf7HRLma96UIKnkYXeq0WPHokBMy6n77IPrrrvOGCWdnMgnjf8MaZLtpuBLSxX9VMKlbpvQfTxD/g9t89V/CoHMfLaUXxrbjzTJdlNsSrKtIfX1fhpRtje/NHYcaZKlkcYuRrqdLI00djHSJEsjjV2MNMnSSGMXI02yNNLYxUiTLI00djHSJEsjjV2MNMnSSGMXI02yNNLYxUiTLI00dimA/wfXphaFC2RChAAAAABJRU5ErkJggg==;imageBorder=default;" vertex="1" parent="IKz7TJG8OtB4aFxvGQZs-5">
          <mxGeometry x="55" y="72" width="85.32" height="66.85" as="geometry" />
        </mxCell>
        <mxCell id="IKz7TJG8OtB4aFxvGQZs-7" value="Jenkin Server" style="rounded=0;whiteSpace=wrap;html=1;dashed=1;dashPattern=1 4;" vertex="1" parent="IKz7TJG8OtB4aFxvGQZs-5">
          <mxGeometry x="41" y="144" width="120" height="14" as="geometry" />
        </mxCell>
        <mxCell id="IKz7TJG8OtB4aFxvGQZs-9" value="Output File" style="rounded=0;whiteSpace=wrap;html=1;dashed=1;dashPattern=1 4;" vertex="1" parent="IKz7TJG8OtB4aFxvGQZs-5">
          <mxGeometry x="189" y="170.85" width="116" height="20.15" as="geometry" />
        </mxCell>
        <mxCell id="IKz7TJG8OtB4aFxvGQZs-8" value="" style="outlineConnect=0;dashed=0;verticalLabelPosition=bottom;verticalAlign=top;align=center;html=1;shape=mxgraph.aws3.documents;fillColor=#759C3E;gradientColor=none;" vertex="1" parent="IKz7TJG8OtB4aFxvGQZs-5">
          <mxGeometry x="222" y="110.35" width="44" height="56.5" as="geometry" />
        </mxCell>
        <mxCell id="IKz7TJG8OtB4aFxvGQZs-10" value="Cloud" style="ellipse;shape=cloud;whiteSpace=wrap;html=1;strokeColor=#c91818;" vertex="1" parent="IKz7TJG8OtB4aFxvGQZs-5">
          <mxGeometry x="179" y="27.5" width="99" height="64" as="geometry" />
        </mxCell>
        <mxCell id="IKz7TJG8OtB4aFxvGQZs-12" value="EC2 instance contents" style="points=[[0,0],[0.25,0],[0.5,0],[0.75,0],[1,0],[1,0.25],[1,0.5],[1,0.75],[1,1],[0.75,1],[0.5,1],[0.25,1],[0,1],[0,0.75],[0,0.5],[0,0.25]];outlineConnect=0;gradientColor=none;html=1;whiteSpace=wrap;fontSize=12;fontStyle=0;container=1;pointerEvents=0;collapsible=0;recursiveResize=0;shape=mxgraph.aws4.group;grIcon=mxgraph.aws4.group_ec2_instance_contents;strokeColor=#1e0d01;fillColor=none;verticalAlign=top;align=left;spacingLeft=30;fontColor=#D86613;dashed=0;" vertex="1" parent="IKz7TJG8OtB4aFxvGQZs-5">
          <mxGeometry x="5" y="19.5" width="322" height="174.5" as="geometry" />
        </mxCell>
        <mxCell id="yClpK7kc0swXINk5XOjI-2" value="Amazon EC2" style="sketch=0;outlineConnect=0;fontColor=#232F3E;gradientColor=none;strokeColor=#ffffff;fillColor=#232F3E;dashed=0;verticalLabelPosition=middle;verticalAlign=bottom;align=center;html=1;whiteSpace=wrap;fontSize=10;fontStyle=1;spacing=3;shape=mxgraph.aws4.productIcon;prIcon=mxgraph.aws4.ec2;" vertex="1" parent="IKz7TJG8OtB4aFxvGQZs-5">
          <mxGeometry x="346" y="55.5" width="74" height="92" as="geometry" />
        </mxCell>
        <mxCell id="IKz7TJG8OtB4aFxvGQZs-27" style="edgeStyle=orthogonalEdgeStyle;rounded=0;orthogonalLoop=1;jettySize=auto;html=1;dashed=1;" edge="1" parent="1" source="IKz7TJG8OtB4aFxvGQZs-16">
          <mxGeometry relative="1" as="geometry">
            <mxPoint x="52.39996337890625" y="-12" as="targetPoint" />
          </mxGeometry>
        </mxCell>
        <mxCell id="IKz7TJG8OtB4aFxvGQZs-16" value="" style="sketch=0;html=1;dashed=0;whitespace=wrap;fillColor=#2875E2;strokeColor=#ffffff;points=[[0.005,0.63,0],[0.1,0.2,0],[0.9,0.2,0],[0.5,0,0],[0.995,0.63,0],[0.72,0.99,0],[0.5,1,0],[0.28,0.99,0]];verticalLabelPosition=bottom;align=center;verticalAlign=top;shape=mxgraph.kubernetes.icon;prIcon=user" vertex="1" parent="1">
          <mxGeometry x="-103" y="-36" width="50" height="48" as="geometry" />
        </mxCell>
        <mxCell id="IKz7TJG8OtB4aFxvGQZs-17" value="&lt;b&gt;Developer&lt;/b&gt;" style="text;html=1;align=center;verticalAlign=middle;resizable=0;points=[];autosize=1;strokeColor=none;fillColor=none;" vertex="1" parent="1">
          <mxGeometry x="-115.5" y="21" width="76" height="26" as="geometry" />
        </mxCell>
        <mxCell id="IKz7TJG8OtB4aFxvGQZs-29" style="edgeStyle=orthogonalEdgeStyle;rounded=0;orthogonalLoop=1;jettySize=auto;html=1;entryX=-0.013;entryY=0.565;entryDx=0;entryDy=0;entryPerimeter=0;dashed=1;" edge="1" parent="1" source="IKz7TJG8OtB4aFxvGQZs-19" target="IKz7TJG8OtB4aFxvGQZs-22">
          <mxGeometry relative="1" as="geometry" />
        </mxCell>
        <mxCell id="IKz7TJG8OtB4aFxvGQZs-19" value="" style="verticalLabelPosition=bottom;html=1;verticalAlign=top;align=center;strokeColor=none;fillColor=#00BEF2;shape=mxgraph.azure.github_code;pointerEvents=1;" vertex="1" parent="1">
          <mxGeometry x="59" y="-36" width="58" height="50" as="geometry" />
        </mxCell>
        <mxCell id="IKz7TJG8OtB4aFxvGQZs-23" style="edgeStyle=orthogonalEdgeStyle;rounded=0;orthogonalLoop=1;jettySize=auto;html=1;" edge="1" parent="1" source="IKz7TJG8OtB4aFxvGQZs-22" target="IKz7TJG8OtB4aFxvGQZs-20">
          <mxGeometry relative="1" as="geometry" />
        </mxCell>
        <mxCell id="IKz7TJG8OtB4aFxvGQZs-24" style="edgeStyle=orthogonalEdgeStyle;orthogonalLoop=1;jettySize=auto;html=1;entryX=0.373;entryY=-0.037;entryDx=0;entryDy=0;entryPerimeter=0;curved=1;dashed=1;" edge="1" parent="1" source="IKz7TJG8OtB4aFxvGQZs-20" target="IKz7TJG8OtB4aFxvGQZs-6">
          <mxGeometry relative="1" as="geometry" />
        </mxCell>
        <mxCell id="IKz7TJG8OtB4aFxvGQZs-20" value="" style="outlineConnect=0;dashed=0;verticalLabelPosition=bottom;verticalAlign=top;align=center;html=1;shape=mxgraph.aws3.internet_gateway;fillColor=#F58536;gradientColor=none;" vertex="1" parent="1">
          <mxGeometry x="221" y="43" width="60" height="38" as="geometry" />
        </mxCell>
        <mxCell id="IKz7TJG8OtB4aFxvGQZs-21" value="&lt;b&gt;Internet gateway&lt;/b&gt;" style="text;html=1;align=center;verticalAlign=middle;resizable=0;points=[];autosize=1;strokeColor=none;fillColor=none;" vertex="1" parent="1">
          <mxGeometry x="267.5" y="63" width="113" height="26" as="geometry" />
        </mxCell>
        <mxCell id="IKz7TJG8OtB4aFxvGQZs-22" value="" style="sketch=0;outlineConnect=0;fontColor=#232F3E;gradientColor=none;fillColor=#232F3D;strokeColor=none;dashed=0;verticalLabelPosition=bottom;verticalAlign=top;align=center;html=1;fontSize=12;fontStyle=0;aspect=fixed;pointerEvents=1;shape=mxgraph.aws4.internet_alt2;" vertex="1" parent="1">
          <mxGeometry x="221" y="-38" width="48" height="48" as="geometry" />
        </mxCell>
        <mxCell id="IKz7TJG8OtB4aFxvGQZs-26" value="&lt;b&gt;GitHub&lt;/b&gt;" style="text;html=1;align=center;verticalAlign=middle;resizable=0;points=[];autosize=1;strokeColor=none;fillColor=none;" vertex="1" parent="1">
          <mxGeometry x="54" y="13" width="58" height="26" as="geometry" />
        </mxCell>
        <mxCell id="IKz7TJG8OtB4aFxvGQZs-28" value="&lt;b&gt;Commit / Push&lt;/b&gt;" style="text;html=1;align=center;verticalAlign=middle;resizable=0;points=[];autosize=1;strokeColor=none;fillColor=none;" vertex="1" parent="1">
          <mxGeometry x="-55" y="-43" width="102" height="26" as="geometry" />
        </mxCell>
        <mxCell id="IKz7TJG8OtB4aFxvGQZs-30" value="&lt;b&gt;Commit / Push&lt;/b&gt;" style="text;html=1;align=center;verticalAlign=middle;resizable=0;points=[];autosize=1;strokeColor=none;fillColor=none;" vertex="1" parent="1">
          <mxGeometry x="117" y="-43" width="102" height="26" as="geometry" />
        </mxCell>
        <mxCell id="IKz7TJG8OtB4aFxvGQZs-31" value="&lt;b&gt;Trigger On&lt;/b&gt;" style="text;html=1;align=center;verticalAlign=middle;resizable=0;points=[];autosize=1;strokeColor=none;fillColor=none;" vertex="1" parent="1">
          <mxGeometry x="123" y="-8" width="79" height="26" as="geometry" />
        </mxCell>
      </root>
    </mxGraphModel>
  </diagram>
  <diagram id="om-Cg4jFXJ8UA3Wl4L_u" name="Capstone 2A">
    <mxGraphModel dx="1442" dy="969" grid="0" gridSize="10" guides="1" tooltips="1" connect="1" arrows="1" fold="1" page="0" pageScale="1" pageWidth="850" pageHeight="1100" math="0" shadow="0">
      <root>
        <mxCell id="0" />
        <mxCell id="1" parent="0" />
        <mxCell id="70D7Iz2CKS8XCDBVvfR0-1" value="" style="image;points=[];aspect=fixed;html=1;align=center;shadow=0;dashed=0;image=img/lib/allied_telesis/computer_and_terminals/Personal_Computer.svg;" parent="1" vertex="1">
          <mxGeometry x="-225" y="143.58" width="51" height="69.12" as="geometry" />
        </mxCell>
        <mxCell id="70D7Iz2CKS8XCDBVvfR0-2" value="" style="outlineConnect=0;dashed=0;verticalLabelPosition=bottom;verticalAlign=top;align=center;html=1;shape=mxgraph.aws3.codecommit;fillColor=#759C3E;gradientColor=none;" parent="1" vertex="1">
          <mxGeometry x="15" y="136" width="70" height="80.4" as="geometry" />
        </mxCell>
        <mxCell id="70D7Iz2CKS8XCDBVvfR0-3" value="" style="sketch=0;outlineConnect=0;fontColor=#232F3E;gradientColor=none;fillColor=#232F3D;strokeColor=none;dashed=0;verticalLabelPosition=bottom;verticalAlign=top;align=center;html=1;fontSize=12;fontStyle=0;aspect=fixed;pointerEvents=1;shape=mxgraph.aws4.git_repository;" parent="1" vertex="1">
          <mxGeometry x="289" y="139.9" width="56" height="72.8" as="geometry" />
        </mxCell>
        <mxCell id="70D7Iz2CKS8XCDBVvfR0-6" style="edgeStyle=orthogonalEdgeStyle;rounded=0;orthogonalLoop=1;jettySize=auto;html=1;startArrow=classic;startFill=1;" parent="1" edge="1">
          <mxGeometry relative="1" as="geometry">
            <mxPoint x="45" y="130.00003051757812" as="targetPoint" />
            <mxPoint x="45" y="49" as="sourcePoint" />
          </mxGeometry>
        </mxCell>
        <mxCell id="70D7Iz2CKS8XCDBVvfR0-4" value="" style="outlineConnect=0;dashed=0;verticalLabelPosition=bottom;verticalAlign=top;align=center;html=1;shape=mxgraph.aws3.iam;fillColor=#759C3E;gradientColor=none;" parent="1" vertex="1">
          <mxGeometry x="24" y="-31" width="42" height="75" as="geometry" />
        </mxCell>
        <mxCell id="70D7Iz2CKS8XCDBVvfR0-5" value="&lt;b&gt;AWS IAM&lt;/b&gt;" style="text;html=1;align=center;verticalAlign=middle;resizable=0;points=[];autosize=1;strokeColor=none;fillColor=none;" parent="1" vertex="1">
          <mxGeometry x="10" y="-62" width="71" height="26" as="geometry" />
        </mxCell>
        <mxCell id="70D7Iz2CKS8XCDBVvfR0-7" value="&lt;b&gt;AWS &lt;br&gt;Code Commit&lt;/b&gt;" style="text;html=1;align=center;verticalAlign=middle;resizable=0;points=[];autosize=1;strokeColor=none;fillColor=none;" parent="1" vertex="1">
          <mxGeometry y="209" width="96" height="41" as="geometry" />
        </mxCell>
        <mxCell id="70D7Iz2CKS8XCDBVvfR0-8" value="" style="endArrow=none;html=1;rounded=0;strokeWidth=11;strokeColor=#26cf9c;" parent="1" edge="1">
          <mxGeometry width="50" height="50" relative="1" as="geometry">
            <mxPoint x="-208" y="407" as="sourcePoint" />
            <mxPoint x="-208" y="247" as="targetPoint" />
          </mxGeometry>
        </mxCell>
        <mxCell id="70D7Iz2CKS8XCDBVvfR0-9" value="" style="endArrow=none;html=1;rounded=0;strokeWidth=11;strokeColor=#26cf9c;" parent="1" edge="1">
          <mxGeometry width="50" height="50" relative="1" as="geometry">
            <mxPoint x="48" y="405" as="sourcePoint" />
            <mxPoint x="48" y="245" as="targetPoint" />
          </mxGeometry>
        </mxCell>
        <mxCell id="70D7Iz2CKS8XCDBVvfR0-10" value="" style="endArrow=none;html=1;rounded=0;strokeWidth=11;strokeColor=#26cf9c;" parent="1" edge="1">
          <mxGeometry width="50" height="50" relative="1" as="geometry">
            <mxPoint x="320" y="395" as="sourcePoint" />
            <mxPoint x="320" y="235" as="targetPoint" />
          </mxGeometry>
        </mxCell>
        <mxCell id="70D7Iz2CKS8XCDBVvfR0-11" value="&lt;b&gt;Computer&lt;/b&gt;" style="text;html=1;align=center;verticalAlign=middle;resizable=0;points=[];autosize=1;strokeColor=none;fillColor=none;" parent="1" vertex="1">
          <mxGeometry x="-249" y="217" width="75" height="26" as="geometry" />
        </mxCell>
        <mxCell id="70D7Iz2CKS8XCDBVvfR0-12" value="&lt;b&gt;Git Server&lt;/b&gt;" style="text;html=1;align=center;verticalAlign=middle;resizable=0;points=[];autosize=1;strokeColor=none;fillColor=none;" parent="1" vertex="1">
          <mxGeometry x="287" y="215" width="75" height="26" as="geometry" />
        </mxCell>
        <mxCell id="70D7Iz2CKS8XCDBVvfR0-14" value="" style="endArrow=classic;html=1;rounded=0;strokeWidth=6;strokeColor=#dba614;" parent="1" edge="1">
          <mxGeometry width="50" height="50" relative="1" as="geometry">
            <mxPoint x="-198" y="383" as="sourcePoint" />
            <mxPoint x="43" y="383" as="targetPoint" />
          </mxGeometry>
        </mxCell>
        <mxCell id="70D7Iz2CKS8XCDBVvfR0-15" value="" style="endArrow=classic;html=1;rounded=0;strokeWidth=6;strokeColor=#dba614;startArrow=classic;startFill=1;" parent="1" edge="1">
          <mxGeometry width="50" height="50" relative="1" as="geometry">
            <mxPoint x="-203" y="330" as="sourcePoint" />
            <mxPoint x="310" y="330" as="targetPoint" />
          </mxGeometry>
        </mxCell>
        <mxCell id="70D7Iz2CKS8XCDBVvfR0-16" value="" style="endArrow=classic;html=1;rounded=0;strokeWidth=6;strokeColor=#dba614;" parent="1" edge="1">
          <mxGeometry width="50" height="50" relative="1" as="geometry">
            <mxPoint x="-201" y="284" as="sourcePoint" />
            <mxPoint x="40" y="284" as="targetPoint" />
          </mxGeometry>
        </mxCell>
        <mxCell id="70D7Iz2CKS8XCDBVvfR0-17" value="&lt;b&gt;1. AWS Console: Create Repository&lt;/b&gt;&amp;nbsp;" style="text;html=1;align=center;verticalAlign=middle;resizable=0;points=[];autosize=1;strokeColor=none;fillColor=none;" parent="1" vertex="1">
          <mxGeometry x="-206" y="256" width="223" height="26" as="geometry" />
        </mxCell>
        <mxCell id="70D7Iz2CKS8XCDBVvfR0-18" value="&lt;b&gt;2. GIT Client: Clone Project&lt;/b&gt;&amp;nbsp;" style="text;html=1;align=center;verticalAlign=middle;resizable=0;points=[];autosize=1;strokeColor=none;fillColor=none;" parent="1" vertex="1">
          <mxGeometry x="-48" y="303" width="176" height="26" as="geometry" />
        </mxCell>
        <mxCell id="70D7Iz2CKS8XCDBVvfR0-19" value="&lt;b&gt;3. GIT Client: Pust Project to Repository&lt;/b&gt;&amp;nbsp;" style="text;html=1;align=center;verticalAlign=middle;resizable=0;points=[];autosize=1;strokeColor=none;fillColor=none;" parent="1" vertex="1">
          <mxGeometry x="-206" y="350" width="249" height="26" as="geometry" />
        </mxCell>
      </root>
    </mxGraphModel>
  </diagram>
  <diagram id="3Uzvmm4RrFNHBk4uY9W5" name="Capstone2B">
    <mxGraphModel dx="1042" dy="569" grid="0" gridSize="10" guides="1" tooltips="1" connect="1" arrows="1" fold="1" page="1" pageScale="1" pageWidth="850" pageHeight="1100" math="0" shadow="0">
      <root>
        <mxCell id="0" />
        <mxCell id="1" parent="0" />
        <mxCell id="zHOS_7I20rviw4JJWA-O-4" style="edgeStyle=orthogonalEdgeStyle;rounded=0;orthogonalLoop=1;jettySize=auto;html=1;startArrow=oval;startFill=1;endArrow=oval;endFill=1;" edge="1" parent="1" source="zHOS_7I20rviw4JJWA-O-2">
          <mxGeometry relative="1" as="geometry">
            <mxPoint x="200" y="380" as="targetPoint" />
          </mxGeometry>
        </mxCell>
        <mxCell id="zHOS_7I20rviw4JJWA-O-2" value="AWS&#xa;Command Line Interface" style="sketch=0;outlineConnect=0;fontColor=#232F3E;gradientColor=none;strokeColor=#ffffff;fillColor=#0b4184;dashed=0;verticalLabelPosition=middle;verticalAlign=bottom;align=center;html=1;whiteSpace=wrap;fontSize=10;fontStyle=1;spacing=3;shape=mxgraph.aws4.productIcon;prIcon=mxgraph.aws4.command_line_interface;" vertex="1" parent="1">
          <mxGeometry x="80" y="160" width="80" height="120" as="geometry" />
        </mxCell>
        <mxCell id="zHOS_7I20rviw4JJWA-O-5" style="edgeStyle=orthogonalEdgeStyle;rounded=0;orthogonalLoop=1;jettySize=auto;html=1;endArrow=oval;endFill=1;" edge="1" parent="1" source="zHOS_7I20rviw4JJWA-O-3">
          <mxGeometry relative="1" as="geometry">
            <mxPoint x="200" y="380" as="targetPoint" />
          </mxGeometry>
        </mxCell>
        <mxCell id="zHOS_7I20rviw4JJWA-O-3" value="AWS Management Console" style="sketch=0;outlineConnect=0;fontColor=#232F3E;gradientColor=none;strokeColor=#ffffff;fillColor=#0b4184;dashed=0;verticalLabelPosition=middle;verticalAlign=bottom;align=center;html=1;whiteSpace=wrap;fontSize=10;fontStyle=1;spacing=3;shape=mxgraph.aws4.productIcon;prIcon=mxgraph.aws4.management_console;" vertex="1" parent="1">
          <mxGeometry x="80" y="320" width="80" height="120" as="geometry" />
        </mxCell>
        <mxCell id="zHOS_7I20rviw4JJWA-O-12" style="edgeStyle=orthogonalEdgeStyle;rounded=0;orthogonalLoop=1;jettySize=auto;html=1;startArrow=classic;startFill=1;" edge="1" parent="1" source="zHOS_7I20rviw4JJWA-O-6">
          <mxGeometry relative="1" as="geometry">
            <mxPoint x="200" y="300" as="targetPoint" />
          </mxGeometry>
        </mxCell>
        <mxCell id="zHOS_7I20rviw4JJWA-O-13" style="edgeStyle=orthogonalEdgeStyle;rounded=0;orthogonalLoop=1;jettySize=auto;html=1;entryX=0.92;entryY=0.5;entryDx=0;entryDy=0;entryPerimeter=0;startArrow=classic;startFill=1;" edge="1" parent="1" source="zHOS_7I20rviw4JJWA-O-6" target="zHOS_7I20rviw4JJWA-O-10">
          <mxGeometry relative="1" as="geometry">
            <mxPoint x="420" y="150" as="targetPoint" />
          </mxGeometry>
        </mxCell>
        <mxCell id="zHOS_7I20rviw4JJWA-O-14" style="edgeStyle=orthogonalEdgeStyle;rounded=0;orthogonalLoop=1;jettySize=auto;html=1;entryX=0;entryY=0.641;entryDx=0;entryDy=0;entryPerimeter=0;" edge="1" parent="1" source="zHOS_7I20rviw4JJWA-O-6" target="zHOS_7I20rviw4JJWA-O-7">
          <mxGeometry relative="1" as="geometry" />
        </mxCell>
        <mxCell id="zHOS_7I20rviw4JJWA-O-6" value="Amazon S3" style="sketch=0;outlineConnect=0;fontColor=#232F3E;gradientColor=none;strokeColor=#ffffff;fillColor=#0b4184;dashed=0;verticalLabelPosition=middle;verticalAlign=bottom;align=center;html=1;whiteSpace=wrap;fontSize=10;fontStyle=1;spacing=3;shape=mxgraph.aws4.productIcon;prIcon=mxgraph.aws4.s3;" vertex="1" parent="1">
          <mxGeometry x="380" y="250" width="80" height="100" as="geometry" />
        </mxCell>
        <mxCell id="zHOS_7I20rviw4JJWA-O-7" value="" style="sketch=0;points=[[0,0,0],[0.25,0,0],[0.5,0,0],[0.75,0,0],[1,0,0],[0,1,0],[0.25,1,0],[0.5,1,0],[0.75,1,0],[1,1,0],[0,0.25,0],[0,0.5,0],[0,0.75,0],[1,0.25,0],[1,0.5,0],[1,0.75,0]];outlineConnect=0;fontColor=#232F3E;fillColor=#7AA116;strokeColor=#ffffff;dashed=0;verticalLabelPosition=bottom;verticalAlign=top;align=center;html=1;fontSize=12;fontStyle=0;aspect=fixed;shape=mxgraph.aws4.resourceIcon;resIcon=mxgraph.aws4.glacier;" vertex="1" parent="1">
          <mxGeometry x="580" y="250" width="78" height="78" as="geometry" />
        </mxCell>
        <mxCell id="zHOS_7I20rviw4JJWA-O-9" value="&lt;b&gt;S3 Glacier&lt;/b&gt;" style="text;html=1;align=center;verticalAlign=middle;resizable=0;points=[];autosize=1;strokeColor=none;fillColor=none;" vertex="1" parent="1">
          <mxGeometry x="580" y="333" width="80" height="30" as="geometry" />
        </mxCell>
        <mxCell id="zHOS_7I20rviw4JJWA-O-10" value="" style="outlineConnect=0;dashed=0;verticalLabelPosition=bottom;verticalAlign=top;align=center;html=1;shape=mxgraph.aws3.iam;fillColor=#759C3E;gradientColor=none;direction=south;" vertex="1" parent="1">
          <mxGeometry x="379.5" y="98.5" width="81" height="42" as="geometry" />
        </mxCell>
        <mxCell id="zHOS_7I20rviw4JJWA-O-11" value="&lt;b&gt;AWS IAM&lt;/b&gt;" style="text;html=1;align=center;verticalAlign=middle;resizable=0;points=[];autosize=1;strokeColor=none;fillColor=none;flipV=1;" vertex="1" parent="1">
          <mxGeometry x="440" y="130" width="80" height="30" as="geometry" />
        </mxCell>
        <mxCell id="zHOS_7I20rviw4JJWA-O-15" value="ACK" style="text;html=1;align=center;verticalAlign=middle;resizable=0;points=[];autosize=1;strokeColor=none;fillColor=none;fontStyle=1" vertex="1" parent="1">
          <mxGeometry x="262" y="264" width="50" height="30" as="geometry" />
        </mxCell>
        <mxCell id="zHOS_7I20rviw4JJWA-O-16" value="PUSH" style="text;html=1;align=center;verticalAlign=middle;resizable=0;points=[];autosize=1;strokeColor=none;fillColor=none;fontStyle=1" vertex="1" parent="1">
          <mxGeometry x="259" y="306" width="60" height="30" as="geometry" />
        </mxCell>
      </root>
    </mxGraphModel>
  </diagram>
  <diagram id="uCwscj2-Egchz0gDGlTV" name="Page-5">
    <mxGraphModel dx="1042" dy="569" grid="1" gridSize="10" guides="1" tooltips="1" connect="1" arrows="1" fold="1" page="1" pageScale="1" pageWidth="850" pageHeight="1100" math="0" shadow="0">
      <root>
        <mxCell id="0" />
        <mxCell id="1" parent="0" />
      </root>
    </mxGraphModel>
  </diagram>
</mxfile>
